<svg xmlns="http://www.w3.org/2000/svg" width="673.92" height="95.616" viewBox="0 0 673.92 95.616">
  <path id="패스_156" data-name="패스 156" d="M-325.848,3.6V-32.016h36.72V-22.7h-26.016v4.464h22.9v8.064h-22.9v4.464h26.016V3.6Zm85.2-35.568h2.3L-252.456,3.6H-270.5l-14.112-35.568h12.864l10.272,25.92,10.32-25.92h10.512ZM-233.88,3.6V-32.016h36.72V-22.7h-26.016v4.464h22.9v8.064h-22.9v4.464h26.016V3.6Zm80.3-14.256L-159.1-6.48l7.344,10.032h-11.664L-170.76-6.48h-9.5V3.552H-190.92v-35.52h30.24l7.1,5.328Zm-10.656-5.328v-7.152h-15.984v7.152ZM-149.4-31.968h12.864l8.448,12.288,8.448-12.288h12.864l-14.208,20.736V3.552h-14.208V-11.232Zm60.384,35.52h-6.72l-7.728-5.328V-26.64l7.728-5.328h27.12l7.728,5.328V-1.776l-7.728,5.328Zm-3.792-26.64v17.76h21.264v-17.76Zm65.424-8.88h10.656V3.552H-28.056L-45.144-14.88V3.552H-55.8v-35.52h11.28l17.136,18.432ZM-10.728,3.6V-32.016h36.72V-22.7H-.024v4.464h22.9v8.064H-.024v4.464H25.992V3.6Zm51.84-22.464H63.528l7.488,5.328V-1.824L63.528,3.552H31.848v-8.88H59.976V-9.552H39.336l-7.488-5.376V-26.64l7.488-5.328H69.144v8.88H41.112ZM110.472,3.6H98.76V-32.016h32.016l7.152,5.328v24.96L130.776,3.6Zm16.752-26.3H110.472V-5.712h16.752ZM181.08-10.656,175.56-6.48,182.9,3.552H171.24L163.9-6.48h-9.5V3.552H143.736v-35.52h30.24l7.1,5.328Zm-10.656-5.328v-7.152H154.44v7.152ZM187.56,3.6V-32.016h36.72V-22.7H198.264v4.464h22.9v8.064h-22.9v4.464H224.28V3.6Zm88.32,0H264.168l-2.112-5.376H243.384L241.272,3.6H229.608L243.72-32.016h18.048ZM246.936-10.656H258.5l-5.76-14.592Zm79.632-21.36h.048V3.6H315.96V-14.16L308.424-1.584h-9.888L291-14.208V3.6H280.344V-32.016h10.8l12.336,19.68,12.336-19.68ZM-335.256,63.6V27.984h12.48V63.6Zm49.776-35.568h10.656v35.52h-11.328L-303.24,45.12V63.552H-313.9V28.032h11.28l17.136,18.432Zm24.96,13.1H-238.1l7.488,5.328V58.176l-7.488,5.376h-31.68v-8.88h28.128V50.448H-262.3l-7.488-5.376V33.36l7.488-5.328h29.808v8.88H-260.52Zm72.048-7.776V47.616l-7.1,5.328H-215.16V63.552h-10.656V28.032h30.24Zm-10.7,10.656v-7.1H-215.16v7.1ZM-180.168,63.6V27.984h12.48V63.6Zm58.8-14.256-5.52,4.176,7.344,10.032h-11.664l-7.344-10.032h-9.5V63.552h-10.656V28.032h30.24l7.1,5.328Zm-10.656-5.328V36.864h-15.984v7.152ZM-114.888,63.6V27.984h36.72V37.3h-26.016V41.76h22.9v8.064h-22.9v4.464h26.016V63.6Zm101.424-.048H-42.648l-7.1-5.328V33.36l7.1-5.328h29.184V37.3H-37.176V54.288h23.712Zm19.968,0H-.216l-7.728-5.328V33.36l7.728-5.328H26.9l7.728,5.328V58.224L26.9,63.552ZM2.712,36.912v17.76H23.976V36.912Zm83.232-8.928h.048V63.6H75.336V45.84L67.8,58.416H57.912L50.376,45.792V63.6H39.72V27.984h10.8l12.336,19.68,12.336-19.68Zm42.384,5.376V47.616l-7.1,5.328H101.64V63.552H90.984V28.032h30.24Zm-10.7,10.656v-7.1H101.64v7.1ZM178.776,63.6H167.064l-2.112-5.376H146.28L144.168,63.6H132.5l14.112-35.616h18.048ZM149.832,49.344H161.4l-5.76-14.592Zm61.824-21.312h10.656v35.52H210.984L193.9,45.12V63.552H183.24V28.032h11.28l17.136,18.432Zm19.3,35.568V27.984h12.48V63.6Zm35.424-.048h-6.72l-7.728-5.328V33.36l7.728-5.328h27.12L294.5,33.36V58.224l-7.728,5.328Zm-3.792-26.64v17.76h21.264V36.912Zm65.424-8.88h10.656v35.52H327.336L310.248,45.12V63.552H299.592V28.032h11.28l17.136,18.432Z" transform="translate(335.256 32.016)" fill="#fff"/>
</svg>
