<svg xmlns="http://www.w3.org/2000/svg" width="997.152" height="95.664" viewBox="0 0 997.152 95.664">
  <path id="패스_155" data-name="패스 155" d="M-462.624,3.552h-29.184l-7.1-5.328V-26.64l7.1-5.328h29.184V-22.7h-23.712V-5.712h23.712Zm19.968,0h-6.72L-457.1-1.776V-26.64l7.728-5.328h27.12l7.728,5.328V-1.776l-7.728,5.328Zm-3.792-26.64v17.76h21.264v-17.76Zm65.424-8.88h10.656V3.552H-381.7L-398.784-14.88V3.552H-409.44v-35.52h11.28l17.136,18.432Zm44.4,0h10.656V3.552H-337.3L-354.384-14.88V3.552H-365.04v-35.52h11.28l17.136,18.432ZM-319.968,3.6V-32.016h36.72V-22.7h-26.016v4.464h22.9v8.064h-22.9v4.464h26.016V3.6Zm79.2-.048h-29.184l-7.1-5.328V-26.64l7.1-5.328h29.184V-22.7H-264.48V-5.712h23.712Zm5.472-25.488V-31.92h39.072v9.984h-13.3V3.648h-12.432V-21.936ZM-187.728,3.6V-32.016h12.48V3.6Zm49.776-35.568H-127.3V3.552h-11.328L-155.712-14.88V3.552h-10.656v-35.52h11.28l17.136,18.432Zm22.944-.048h32.832v9.84h-27.936V-6.24H-91.3v-4.416h-13.728v-7.1h22.848V3.6h-32.832l-7.248-7.1V-24.912Zm60.24,10.08V-31.92H-15.7v9.984h-13.3V3.648H-41.424V-21.936ZM.576-8.88V3.6h-10.7V-32.016H.576v12.48h17.76v-12.48h10.7V3.6h-10.7V-8.88ZM35.568,3.6V-32.016h36.72V-22.7H46.272v4.464h22.9v8.064h-22.9v4.464H72.288V3.6ZM146.88-32.016h.048V3.6H136.272V-14.16L128.736-1.584h-9.888l-7.536-12.624V3.6H100.656V-32.016h10.8l12.336,19.68,12.336-19.68ZM152.928,3.6V-32.016h36.72V-22.7H163.632v4.464h22.9v8.064h-22.9v4.464h26.016V3.6ZM195.36-21.936V-31.92h39.072v9.984h-13.3V3.648H208.7V-21.936ZM282.432,3.6H270.72l-2.112-5.376H249.936L247.824,3.6H236.16l14.112-35.616H268.32ZM253.488-10.656h11.568L259.3-25.248Zm73.1-21.312h2.3L314.784,3.6H296.736L282.624-31.968h12.864L305.76-6.048l10.32-25.92h10.512ZM330.72,3.6V-32.016h36.72V-22.7H341.424v4.464h22.9v8.064h-22.9v4.464H367.44V3.6Zm80.3-14.256L405.5-6.48l7.344,10.032H401.184L393.84-6.48h-9.5V3.552H373.68v-35.52h30.24l7.1,5.328Zm-10.656-5.328v-7.152H384.384v7.152Zm25.44-2.88h22.416l7.488,5.328V-1.824l-7.488,5.376h-31.68v-8.88h28.128V-9.552h-20.64l-7.488-5.376V-26.64l7.488-5.328H453.84v8.88H425.808ZM461.52,3.6V-32.016h36.72V-22.7H472.224v4.464h22.9v8.064h-22.9v4.464H498.24V3.6Zm-641.256,60h-11.712l-2.112-5.376h-18.672l-2.112,5.376h-11.664L-211.9,27.984h18.048ZM-208.68,49.344h11.568l-5.76-14.592Zm61.824-21.312H-136.2v35.52h-11.328L-164.616,45.12V63.552h-10.656V28.032h11.28l17.136,18.432Zm28.08,35.568h-11.712V27.984h32.016l7.152,5.328v24.96L-98.472,63.6Zm16.752-26.3h-16.752V54.288h16.752Zm76.08,12.048-5.52,4.176,7.344,10.032H-35.784L-43.128,53.52h-9.5V63.552H-63.288V28.032h30.24l7.1,5.328ZM-36.6,44.016V36.864H-52.584v7.152ZM-19.464,63.6V27.984h36.72V37.3H-8.76V41.76h22.9v8.064H-8.76v4.464H17.256V63.6Zm88.32,0H57.144l-2.112-5.376H36.36L34.248,63.6H22.584L36.7,27.984H54.744ZM39.912,49.344H51.48L45.72,34.752ZM112.248,52.9V63.6H73.176V27.984h12.48V52.9Zm8.5,10.7V27.984h12.48V63.6Zm20.928-25.536V28.08h39.072v9.984h-13.3V63.648H155.016V38.064ZM184.3,28.032H197.16l8.448,12.288,8.448-12.288H226.92L212.712,48.768V63.552H198.5V48.768Z" transform="translate(498.912 32.016)" fill="#fff"/>
</svg>
