<svg
						xmlns="http://www.w3.org/2000/svg"
						width="1115.931"
						height="37.893"
						viewBox="0 0 1115.931 37.893"
					>
						<path
							id="패스_168"
							data-name="패스 168"
							d="M44.574-11.322,38.709-6.885l7.8,10.659H34.119l-7.8-10.659h-10.1V3.774H4.9v-37.74h32.13l7.548,5.661ZM33.252-16.983v-7.6H16.269v7.6ZM51.459,3.825V-34.017H90.474v9.894H62.832v4.743H87.159v8.568H62.832v4.743H90.474V3.825Zm93.84,0H132.855l-2.244-5.712H110.772l-2.244,5.712H96.135l14.994-37.842H130.3ZM114.546-11.322h12.291l-6.12-15.5ZM191.4-7.548V3.825H149.889V-34.017h13.26V-7.548ZM200.43,3.825V-34.017h13.26V3.825Zm57.681-27.9L238.68-6.12H260V3.774h-37.74V-6.12h.051l19.431-18H222.258v-9.843h35.853v9.843Zm7.548,27.9V-34.017h39.015v9.894H277.032v4.743h24.327v8.568H277.032v4.743h27.642V3.825Zm85.323-15.147-5.865,4.437,7.8,10.659H340.527l-7.8-10.659h-10.1V3.774H311.3v-37.74h32.13l7.548,5.661ZM339.66-16.983v-7.6H322.677v7.6ZM395.709,3.774h-7.14l-8.211-5.661V-28.305l8.211-5.661h28.815l8.211,5.661V-1.887l-8.211,5.661ZM391.68-24.531v18.87h22.593v-18.87ZM469.3-34.017v9.894H442.833v5.814h23.154v8.925H442.833V3.825H431.46V-34.017ZM501.789,3.825V-34.017h13.26V3.825Zm52.887-37.791H566V3.774H553.962L535.806-15.81V3.774H524.484v-37.74h11.985l18.207,19.584Zm55.284-.051v9.894H583.491v5.814h23.154v8.925H583.491V3.825H572.118V-34.017Zm8.874,37.842V-34.017h13.26V3.825Zm52.887-37.791h11.322V3.774H671.007L652.851-15.81V3.774H641.529v-37.74h11.985l18.207,19.584Zm20.5,37.791V-34.017h13.26V3.825Zm22.236-27.132V-33.915h41.514v10.608H741.846V3.876H728.637V-23.307ZM762.2,3.825V-34.017H801.21v9.894H773.568v4.743H797.9v8.568H773.568v4.743H801.21V3.825Zm82.008,0H831.759V-34.017h34.017l7.6,5.661v26.52l-7.6,5.661ZM862-24.123H844.2V-6.069H862Zm57.222,12.8-5.865,4.437,7.8,10.659H908.769l-7.8-10.659h-10.1V3.774H879.546v-37.74h32.13l7.548,5.661ZM907.9-16.983v-7.6H890.919v7.6ZM926.109,3.825V-34.017h39.015v9.894H937.482v4.743h24.327v8.568H937.482v4.743h27.642V3.825Zm93.84,0H1007.5l-2.244-5.712H985.422l-2.244,5.712H970.785l14.994-37.842h19.176ZM989.2-11.322h12.291l-6.12-15.5Zm84.609-22.695h.051V3.825h-11.322v-18.87l-8.007,13.362h-10.506L1036.014-15.1V3.825h-11.322V-34.017h11.475l13.107,20.91,13.107-20.91Zm15.249,13.974h23.817l7.956,5.661V-1.938l-7.956,5.712h-33.66V-5.661H1109.1v-4.488h-21.93l-7.956-5.712V-28.305l7.956-5.661h31.671v9.435h-29.784Z"
							transform="translate(-4.896 34.017)"
							fill="#fff"
						/>
					</svg>