<svg xmlns="http://www.w3.org/2000/svg" width="305.125" height="46.575" viewBox="0 0 305.125 46.575">
  <path id="패스_159" data-name="패스 159" d="M21.85-5.55,18.975-3.375,22.8,1.85H16.725L12.9-3.375H7.95V1.85H2.4v-18.5H18.15l3.7,2.775ZM16.3-8.325V-12.05H7.975v3.725Zm8.925,10.2v-18.55H44.35v4.85H30.8V-9.5H42.725v4.2H30.8v2.325H44.35v4.85Zm46,0h-6.1l-1.1-2.8H54.3l-1.1,2.8H47.125l7.35-18.55h9.4ZM56.15-5.55h6.025l-3-7.6ZM93.825-3.7V1.875H73.475v-18.55h6.5V-3.7ZM98.25,1.875v-18.55h6.5V1.875ZM126.525-11.8,117-3h10.45V1.85h-18.5V-3h.025l9.525-8.825h-9.55V-16.65h17.575v4.825Zm3.7,13.675v-18.55H149.35v4.85H135.8V-9.5h11.925v4.2H135.8v2.325h13.55v4.85ZM172.05-5.55l-2.875,2.175L173,1.85h-6.075L163.1-3.375h-4.95V1.85H152.6v-18.5h15.75l3.7,2.775ZM166.5-8.325V-12.05h-8.325v3.725ZM193.975,1.85h-3.5L186.45-.925v-12.95l4.025-2.775H204.6l4.025,2.775V-.925L204.6,1.85ZM192-12.025v9.25h11.075v-9.25Zm38.05-4.65v4.85H217.075v2.85h11.35V-4.6h-11.35V1.875H211.5v-18.55ZM4.075,29.875V11.325h6.5v18.55ZM30,11.35h5.55v18.5h-5.9l-8.9-9.6v9.6H15.2V11.35h5.875L30,20.95Zm27.1-.025v4.85H44.125v2.85h11.35V23.4H44.125v6.475H38.55V11.325Zm4.35,18.55V11.325h6.5v18.55ZM87.375,11.35h5.55v18.5h-5.9l-8.9-9.6v9.6h-5.55V11.35H78.45l8.925,9.6Zm10.05,18.525V11.325h6.5v18.55Zm10.9-13.3v-5.2h20.35v5.2H121.75V29.9h-6.475V16.575Zm23.4,13.3V11.325H150.85v4.85H137.3V18.5h11.925v4.2H137.3v2.325h13.55v4.85Zm40.2,0h-6.1V11.325H182.5l3.725,2.775v13L182.5,29.875Zm8.725-13.7h-8.725v8.85h8.725ZM208.7,22.45l-2.875,2.175,3.825,5.225h-6.075l-3.825-5.225H194.8V29.85h-5.55V11.35H205l3.7,2.775Zm-5.55-2.775V15.95h-8.325v3.725Zm8.925,10.2V11.325H231.2v4.85H217.65V18.5h11.925v4.2H217.65v2.325H231.2v4.85Zm46,0h-6.1l-1.1-2.8H241.15l-1.1,2.8h-6.075l7.35-18.55h9.4ZM243,22.45h6.025l-3-7.6Zm41.475-11.125h.025v18.55h-5.55v-9.25l-3.925,6.55h-5.15L265.95,20.6v9.275H260.4V11.325h5.625l6.425,10.25,6.425-10.25Zm7.475,6.85h11.675l3.9,2.775v6.1l-3.9,2.8h-16.5V25.225h14.65v-2.2h-10.75l-3.9-2.8v-6.1l3.9-2.775H306.55v4.625h-14.6Z" transform="translate(-2.4 16.675)" fill="#fff"/>
</svg>
