<svg xmlns="http://www.w3.org/2000/svg" width="322.775" height="48.55" viewBox="0 0 322.775 48.55">
  <path id="패스_160" data-name="패스 160" d="M26.425-16.675h.025V1.875H20.9v-9.25L16.975-.825h-5.15L7.9-7.4V1.875H2.35v-18.55H7.975L14.4-6.425l6.425-10.25ZM28.725-.9V-16.625H35.2v13.25h7.4v-13.25h6.475V-.9l-3.7,2.775H32.425Zm42.75-2.8V1.875H51.125v-18.55h6.5V-3.7Zm2.1-7.725v-5.2h20.35v5.2H87V1.9H80.525V-11.425Zm24.4,13.3v-18.55h6.5V1.875ZM144-16.675h.025V1.875h-5.55v-9.25L134.55-.825H129.4L125.475-7.4V1.875h-5.55v-18.55h5.625l6.425,10.25,6.425-10.25Zm2.775,18.55v-18.55H165.9v4.85H152.35V-9.5h11.925v4.2H152.35v2.325H165.9v4.85Zm21.725-13.3v-5.2h20.35v5.2h-6.925V1.9H175.45V-11.425Zm45.35,13.3h-6.1l-1.1-2.8h-9.725l-1.1,2.8H189.75l7.35-18.55h9.4ZM198.775-5.55H204.8l-3-7.6Zm38.075-11.1h1.2L230.7,1.875h-9.4L213.95-16.65h6.7L226-3.15l5.375-13.5h5.475ZM239,1.875v-18.55h19.125v4.85h-13.55V-9.5H256.5v4.2H244.575v2.325h13.55v4.85ZM280.45-5.55l-2.875,2.175L281.4,1.85h-6.075L271.5-3.375h-4.95V1.85H261v-18.5h15.75l3.7,2.775ZM274.9-8.325V-12.05h-8.325v3.725Zm12.875-1.5H299.45l3.9,2.775v6.1l-3.9,2.8h-16.5V-2.775H297.6v-2.2H286.85l-3.9-2.8v-6.1l3.9-2.775h15.525v4.625h-14.6ZM306,1.875v-18.55h19.125v4.85h-13.55V-9.5H323.5v4.2H311.575v2.325h13.55v4.85Zm-297.35,30H2.55V13.325H19.225L22.95,16.1v13l-3.725,2.775Zm8.725-13.7H8.65v8.85h8.725ZM45.05,24.45l-2.875,2.175L46,31.85H39.925L36.1,26.625H31.15V31.85H25.6V13.35H41.35l3.7,2.775ZM39.5,21.675V17.95H31.175v3.725Zm8.55,10.2V13.325H67.175v4.85H53.625V20.5H65.55v4.2H53.625v2.325h13.55v4.85Zm45.625,0h-6.1l-1.1-2.8H76.75l-1.1,2.8H69.575l7.35-18.55h9.4ZM78.6,24.45h6.025l-3-7.6Zm41.1-11.125h.025v18.55h-5.55v-9.25l-3.925,6.55H105.1L101.175,22.6v9.275h-5.55V13.325h5.625l6.425,10.25,6.425-10.25ZM140.65,31.85h-3.5l-4.025-2.775V16.125l4.025-2.775h14.125l4.025,2.775v12.95l-4.025,2.775Zm-1.975-13.875v9.25H149.75v-9.25Zm33.7-4.625h5.55v18.5h-5.9l-8.9-9.6v9.6h-5.55V13.35h5.875l8.925,9.6Z" transform="translate(-2.35 16.675)" fill="#fff"/>
</svg>
