<svg xmlns="http://www.w3.org/2000/svg" width="166.668" height="28.196" viewBox="0 0 166.668 28.196">
  <path id="패스_177" data-name="패스 177" d="M40.166-25.346H40.2V2.85H31.768V-11.21L25.8-1.254H17.974l-5.966-9.994V2.85H3.572v-28.2h8.55l9.766,15.58,9.766-15.58Zm4.788,28.2v-28.2h29.07v7.372h-20.6v3.534H71.554v6.384H53.428v3.534h20.6V2.85Zm43.51,0H79.192v-28.2h25.346l5.662,4.218v19.76L104.538,2.85Zm13.262-20.824H88.464V-4.522h13.262ZM117.344,2.85v-28.2h9.88V2.85Zm52.9,0h-9.272L159.3-1.406H144.514L142.842,2.85h-9.234l11.172-28.2h14.288ZM147.326-8.436h9.158l-4.56-11.552Z" transform="translate(-3.572 25.346)" fill="#fff"/>
</svg>
