<svg xmlns="http://www.w3.org/2000/svg" width="131.58" height="22.26" viewBox="0 0 131.58 22.26">
  <path id="패스_169" data-name="패스 169" d="M31.71-20.01h.03V2.25H25.08V-8.85L20.37-.99H14.19L9.48-8.88V2.25H2.82V-20.01H9.57l7.71,12.3,7.71-12.3ZM35.49,2.25V-20.01H58.44v5.82H42.18v2.79H56.49v5.04H42.18v2.79H58.44V2.25Zm34.35,0H62.52V-20.01H82.53L87-16.68v15.6L82.53,2.25ZM80.31-14.19H69.84V-3.57H80.31ZM92.64,2.25V-20.01h7.8V2.25Zm41.76,0h-7.32l-1.32-3.36H114.09l-1.32,3.36h-7.29l8.82-22.26h11.28ZM116.31-6.66h7.23l-3.6-9.12Z" transform="translate(-2.82 20.01)" fill="#fff"/>
</svg>
