<svg
						xmlns="http://www.w3.org/2000/svg"
						width="940.416"
						height="95.664"
						viewBox="0 0 940.416 95.664"
					>
						<path
							id="패스_153"
							data-name="패스 153"
							d="M-330.552-32.016h.048V3.6H-341.16V-14.16L-348.7-1.584h-9.888l-7.536-12.624V3.6h-10.656V-32.016h10.8l12.336,19.68,12.336-19.68ZM-324.5,3.6V-32.016h36.72V-22.7H-313.8v4.464h22.9v8.064h-22.9v4.464h26.016V3.6Zm42.432-25.536V-31.92H-243v9.984h-13.3V3.648h-12.432V-21.936ZM-195,3.6h-11.712l-2.112-5.376H-227.5L-229.608,3.6h-11.664l14.112-35.616h18.048Zm-28.944-14.256h11.568l-5.76-14.592Zm73.1-21.312h2.3L-162.648,3.6H-180.7l-14.112-35.568h12.864l10.272,25.92,10.32-25.92h10.512ZM-146.712,3.6V-32.016h36.72V-22.7h-26.016v4.464h22.9v8.064h-22.9v4.464h26.016V3.6Zm80.3-14.256-5.52,4.176,7.344,10.032H-76.248L-83.592-6.48h-9.5V3.552h-10.656v-35.52h30.24l7.1,5.328Zm-10.656-5.328v-7.152H-93.048v7.152Zm25.44-2.88h22.416l7.488,5.328V-1.824l-7.488,5.376h-31.68v-8.88H-32.76V-9.552H-53.4l-7.488-5.376V-26.64l7.488-5.328h29.808v8.88H-51.624ZM-15.912,3.6V-32.016h36.72V-22.7H-5.208v4.464h22.9v8.064h-22.9v4.464H20.808V3.6Zm65.04-35.616H81.192l7.1,5.328v8.976l-4.08,3.5,4.08,3.456v8.976L81.192,3.6H49.128Zm28.416,26.3v-5.04H59.832v5.04Zm-17.712-12H77.544V-22.7H59.832ZM93.672-1.728V-31.92H106.1V-6.48h14.208V-31.92h12.432V-1.728L125.64,3.6H100.776ZM146.52-18.864h22.416l7.488,5.328V-1.824l-7.488,5.376h-31.68v-8.88h28.128V-9.552h-20.64l-7.488-5.376V-26.64l7.488-5.328h29.808v8.88H146.52ZM184.872,3.6V-32.016h12.48V3.6Zm49.776-35.568H245.3V3.552H233.976L216.888-14.88V3.552H206.232v-35.52h11.28l17.136,18.432ZM251.3,3.6V-32.016h36.72V-22.7H262.008v4.464h22.9v8.064h-22.9v4.464h26.016V3.6Zm51.84-22.464H325.56l7.488,5.328V-1.824L325.56,3.552H293.88v-8.88h28.128V-9.552h-20.64l-7.488-5.376V-26.64l7.488-5.328h29.808v8.88H303.144Zm44.016,0h22.416l7.488,5.328V-1.824l-7.488,5.376H337.9v-8.88h28.128V-9.552h-20.64L337.9-14.928V-26.64l7.488-5.328h29.808v8.88H347.16ZM-434.232,27.984V37.3h-24.912v5.472h21.792v8.4h-21.792V63.6h-10.7V27.984Zm19.1,35.568h-6.72l-7.728-5.328V33.36l7.728-5.328h27.12L-387,33.36V58.224l-7.728,5.328Zm-3.792-26.64v17.76h21.264V36.912Zm74.448,12.432-5.52,4.176,7.344,10.032h-11.664l-7.344-10.032h-9.5V63.552h-10.656V28.032h30.24l7.1,5.328Zm-10.656-5.328V36.864h-15.984v7.152Zm38.256-5.952V28.08H-277.8v9.984h-13.3V63.648h-12.432V38.064Zm55.344,13.056V63.6h-10.7V27.984h10.7v12.48h17.76V27.984h10.7V63.6h-10.7V51.12Zm34.992,12.48V27.984h36.72V37.3h-26.016V41.76h22.9v8.064h-22.9v4.464h26.016V63.6Zm76.176-12.48V63.6h-10.7V27.984h10.7v12.48h17.76V27.984h10.7V63.6h-10.7V51.12Zm34.08,7.152V28.08h12.432V53.52H-89.64V28.08h12.432V58.272l-7.1,5.328h-24.864Zm90.1-30.288h.048V63.6H-36.792V45.84l-7.536,12.576h-9.888l-7.536-12.624V63.6H-72.408V27.984h10.8l12.336,19.68,12.336-19.68ZM24.648,63.6H12.936l-2.112-5.376H-7.848L-9.96,63.6H-21.624L-7.512,27.984H10.536ZM-4.3,49.344H7.272L1.512,34.752ZM57.528,28.032H68.184v35.52H56.856L39.768,45.12V63.552H29.112V28.032h11.28L57.528,46.464Zm49.3,23.088V63.6H96.12V27.984h10.7v12.48h17.76V27.984h10.7V63.6h-10.7V51.12ZM186.6,63.6H174.888l-2.112-5.376H154.1L151.992,63.6H140.328L154.44,27.984h18.048ZM157.656,49.344h11.568l-5.76-14.592ZM228.072,33.36V47.616l-7.1,5.328H201.384V63.552H190.728V28.032h30.24Zm-10.7,10.656v-7.1H201.384v7.1Zm52.7-10.656V47.616l-7.1,5.328H243.384V63.552H232.728V28.032h30.24Zm-10.7,10.656v-7.1H243.384v7.1ZM278.376,63.6V27.984h12.48V63.6Zm49.776-35.568h10.656v35.52H327.48L310.392,45.12V63.552H299.736V28.032h11.28l17.136,18.432ZM344.808,63.6V27.984h36.72V37.3H355.512V41.76h22.9v8.064h-22.9v4.464h26.016V63.6Zm51.84-22.464h22.416l7.488,5.328V58.176l-7.488,5.376h-31.68v-8.88h28.128V50.448h-20.64l-7.488-5.376V33.36l7.488-5.328H424.68v8.88H396.648Zm44.016,0H463.08l7.488,5.328V58.176l-7.488,5.376H431.4v-8.88h28.128V50.448h-20.64L431.4,45.072V33.36l7.488-5.328H468.7v8.88H440.664Z"
							transform="translate(469.848 32.016)"
							fill="#fff"
						/>
					</svg>