<svg xmlns="http://www.w3.org/2000/svg" width="224.43" height="22.26" viewBox="0 0 224.43 22.26">
  <path id="패스_170" data-name="패스 170" d="M25.53,2.22H7.29L2.85-1.11V-16.65l4.44-3.33H25.53v5.79H10.71V-3.57H25.53Zm12.48,0h-4.2L28.98-1.11V-16.65l4.83-3.33H50.76l4.83,3.33V-1.11L50.76,2.22ZM35.64-14.43v11.1H48.93v-11.1Zm52.02-5.58h.03V2.25H81.03V-8.85L76.32-.99H70.14L65.43-8.88V2.25H58.77V-20.01h6.75l7.71,12.3,7.71-12.3Zm32.25,0h.03V2.25h-6.66V-8.85L108.57-.99h-6.18L97.68-8.88V2.25H91.02V-20.01h6.75l7.71,12.3,7.71-12.3Zm3.78,22.26V-20.01h22.95v5.82H130.38v2.79h14.31v5.04H130.38v2.79h16.26V2.25Zm50.19-8.91-3.45,2.61,4.59,6.27h-7.29l-4.59-6.27H157.2V2.22h-6.66v-22.2h18.9l4.44,3.33Zm-6.66-3.33v-4.47h-9.99v4.47Zm33,12.21H181.98l-4.44-3.33V-16.65l4.44-3.33h18.24v5.79H185.4V-3.57h14.82Zm4.11.03V-20.01h22.95v5.82H211.02v2.79h14.31v5.04H211.02v2.79h16.26V2.25Z" transform="translate(-2.85 20.01)" fill="#fff"/>
</svg>
