<svg xmlns="http://www.w3.org/2000/svg" width="60.4" height="30.732" viewBox="0 0 60.4 30.732">
  <path id="패스_165" data-name="패스 165" d="M15.855-10.005h.015V1.125H12.54v-5.55L10.185-.5H7.095L4.74-4.44V1.125H1.41v-11.13H4.785L8.64-3.855l3.855-6.15ZM21.93,1.11h-2.1L17.415-.555v-7.77L19.83-9.99h8.475L30.72-8.325v7.77L28.305,1.11ZM20.745-7.215v5.55H27.39v-5.55ZM44.01-3.33l-1.725,1.3,2.3,3.135H40.935l-2.3-3.135H35.67V1.11H32.34V-9.99h9.45l2.22,1.665ZM40.68-4.995V-7.23h-5v2.235Zm5.355,6.12v-11.13H57.51v2.91H49.38V-5.7h7.155v2.52H49.38v1.395h8.13v2.91Z" transform="translate(-0.116 10.327)" fill="none" stroke="#fff" stroke-width="0.645"/>
  <g id="그룹_20" data-name="그룹 20" transform="translate(0 20.26)">
    <line id="선_2" data-name="선 2" x2="59.693" transform="translate(0 5.06)" fill="none" stroke="#494949" stroke-miterlimit="10" stroke-width="1"/>
    <path id="패스_10" data-name="패스 10" d="M359.941,2233.1l5.059,5.06-5.059,5.06" transform="translate(-305.307 -2233.102)" fill="none" stroke="#494949" stroke-miterlimit="10" stroke-width="1"/>
  </g>
</svg>
