<svg xmlns="http://www.w3.org/2000/svg" width="264.696" height="116.808" viewBox="0 0 264.696 116.808">
  <path id="패스_147" data-name="패스 147" d="M-77-16.008h.024V1.8h-5.328V-7.08L-86.076-.792H-91.02L-94.788-7.1V1.8h-5.328V-16.008h5.4l6.168,9.84,6.168-9.84ZM-74.34,1.8V-16.008h18.36v4.656H-68.988V-9.12H-57.54v4.032H-68.988v2.232H-55.98V1.8Zm20.856-12.768V-15.96h19.536v4.992H-40.6V1.824h-6.216V-10.968ZM-8.988,1.8h-5.856L-15.9-.888h-9.336L-26.292,1.8h-5.832l7.056-17.808h9.024ZM-23.46-5.328h5.784l-2.88-7.3ZM14.052-15.984H15.2L8.148,1.8H-.876L-7.932-15.984H-1.5L3.636-3.024,8.8-15.984h5.256ZM17.076,1.8V-16.008h18.36v4.656H22.428V-9.12H33.876v4.032H22.428v2.232H35.436V1.8ZM56.868-5.328,54.108-3.24,57.78,1.776H51.948L48.276-3.24H43.524V1.776H38.2v-17.76h15.12l3.552,2.664ZM51.54-7.992v-3.576H43.548v3.576ZM63.9-9.432H75.108l3.744,2.664V-.912L75.108,1.776H59.268v-4.44H73.332V-4.776H63.012L59.268-7.464V-13.32l3.744-2.664h14.9v4.44H63.9ZM81.4,1.8V-16.008h18.36v4.656H86.748V-9.12H98.2v4.032H86.748v2.232H99.756V1.8ZM-80.664,16.992h16.032l3.552,2.664v4.488L-63.12,25.9l2.04,1.728v4.488L-64.632,34.8H-80.664Zm14.208,13.152v-2.52h-8.856v2.52Zm-8.856-6h8.856v-2.5h-8.856Zm16.56,7.992V17.04h6.216V29.76h7.1V17.04h6.216v15.1L-42.768,34.8H-55.2Zm26.064-8.568H-21.48l3.744,2.664v5.856l-3.744,2.688H-37.32v-4.44h14.064V28.224h-10.32l-3.744-2.688V19.68l3.744-2.664h14.9v4.44H-32.688ZM-13.872,34.8V16.992h6.24V34.8ZM10.656,17.016h5.328v17.76H10.32L1.776,25.56v9.216H-3.552V17.016h5.64l8.568,9.216ZM18.624,34.8V16.992h18.36v4.656H23.976V23.88H35.424v4.032H23.976v2.232H36.984V34.8Zm25.56-11.232H55.392l3.744,2.664v5.856l-3.744,2.688H39.552v-4.44H53.616V28.224H43.3l-3.744-2.688V19.68L43.3,17.016H58.2v4.44H44.184Zm21.648,0H77.04l3.744,2.664v5.856L77.04,34.776H61.2v-4.44H75.264V28.224H64.944L61.2,25.536V19.68l3.744-2.664h14.9v4.44H65.832Zm-180.24,26.424v4.656h-12.456v2.736h10.9v4.2h-10.9V67.8h-5.352V49.992Zm9.192,17.784h-3.36l-3.864-2.664V52.68l3.864-2.664h13.56l3.864,2.664V65.112l-3.864,2.664Zm-1.9-13.32v8.88H-96.48v-8.88Zm36.864,6.216-2.76,2.088,3.672,5.016h-5.832L-78.84,62.76h-4.752v5.016H-88.92V50.016H-73.8l3.552,2.664Zm-5.328-2.664V54.432h-7.992v3.576Zm18.408-2.976V50.04h19.536v4.992H-44.28V67.824H-50.5V55.032Zm27.312,6.528V67.8h-5.352V49.992h5.352v6.24h8.88v-6.24h5.352V67.8h-5.352V61.56ZM-12.72,67.8V49.992H5.64v4.656H-7.368V56.88H4.08v4.032H-7.368v2.232H5.64V67.8Zm37.368-6.24V67.8H19.3V49.992h5.352v6.24h8.88v-6.24H38.88V67.8H33.528V61.56Zm16.68,3.576V50.04h6.216V62.76h7.1V50.04h6.216v15.1L57.312,67.8H44.88ZM86.016,49.992h.024V67.8H80.712V58.92l-3.768,6.288H72L68.232,58.9v8.9H62.9V49.992h5.4l6.168,9.84,6.168-9.84ZM111.072,67.8h-5.856l-1.056-2.688H94.824L93.768,67.8H87.936l7.056-17.808h9.024ZM96.6,60.672h5.784l-2.88-7.3Zm30.552-10.656h5.328v17.76h-5.664l-8.544-9.216v9.216h-5.328V50.016h5.64l8.568,9.216ZM-86.652,94.56v6.24H-92V82.992h5.352v6.24h8.88v-6.24h5.352V100.8h-5.352V94.56Zm39.528,6.24H-52.98l-1.056-2.688h-9.336l-1.056,2.688H-70.26L-63.2,82.992h9.024ZM-61.6,93.672h5.784l-2.88-7.3Zm34.848-7.992v7.128L-30.3,95.472h-9.792v5.3H-45.42V83.016H-30.3ZM-32.1,91.008V87.456h-7.992v3.552ZM-6.108,85.68v7.128L-9.66,95.472h-9.792v5.3H-24.78V83.016H-9.66Zm-5.352,5.328V87.456h-7.992v3.552Zm9.144,9.792V82.992h6.24V100.8ZM22.212,83.016H27.54v17.76H21.876L13.332,91.56v9.216H8V83.016h5.64l8.568,9.216ZM30.18,100.8V82.992H48.54v4.656H35.532V89.88H46.98v4.032H35.532v2.232H48.54V100.8ZM55.74,89.568H66.948l3.744,2.664v5.856l-3.744,2.688H51.108v-4.44H65.172V94.224H54.852l-3.744-2.688V85.68l3.744-2.664h14.9v4.44H55.74Zm21.648,0H88.6l3.744,2.664v5.856L88.6,100.776H72.756v-4.44H86.82V94.224H76.5l-3.744-2.688V85.68L76.5,83.016H91.4v4.44H77.388Z" transform="translate(132.216 16.008)" fill="#fff"/>
</svg>
