<svg xmlns="http://www.w3.org/2000/svg" width="212.876" height="28.234" viewBox="0 0 212.876 28.234">
  <path id="패스_174" data-name="패스 174" d="M39.558,2.85H30.286L28.614-1.406H13.832L12.16,2.85H2.926L14.1-25.346H28.386ZM16.644-8.436H25.8l-4.56-11.552ZM74.518-25.308h1.824L65.17,2.85H50.882L39.71-25.308H49.894l8.132,20.52,8.17-20.52h8.322ZM113.24,2.85h-9.272L102.3-1.406H87.514L85.842,2.85H76.608l11.172-28.2h14.288ZM90.326-8.436h9.158l-4.56-11.552Zm24.016-8.93v-7.9h30.932v7.9H134.748V2.888h-9.842V-17.366ZM183.274,2.85H174L172.33-1.406H157.548L155.876,2.85h-9.234l11.172-28.2H172.1ZM160.36-8.436h9.158l-4.56-11.552Zm54,0-4.37,3.306L215.8,2.812h-9.234L200.754-5.13H193.23V2.812h-8.436v-28.12h23.94l5.624,4.218Zm-8.436-4.218v-5.662H193.268v5.662Z" transform="translate(-2.926 25.346)" fill="#fff"/>
</svg>
