<svg xmlns="http://www.w3.org/2000/svg" width="168.06" height="22.29" viewBox="0 0 168.06 22.29">
  <path id="패스_168" data-name="패스 168" d="M31.23,2.25H23.91L22.59-1.11H10.92L9.6,2.25H2.31l8.82-22.26H22.41ZM13.14-6.66h7.23l-3.6-9.12ZM58.83-19.98h1.44L51.45,2.25H40.17L31.35-19.98h8.04l6.42,16.2,6.45-16.2h6.57ZM89.4,2.25H82.08L80.76-1.11H69.09L67.77,2.25H60.48L69.3-20.01H80.58ZM71.31-6.66h7.23l-3.6-9.12Zm18.96-7.05v-6.24h24.42v6.24h-8.31V2.28H98.61V-13.71ZM144.69,2.25h-7.32l-1.32-3.36H124.38l-1.32,3.36h-7.29l8.82-22.26h11.28ZM126.6-6.66h7.23l-3.6-9.12Zm42.63,0-3.45,2.61,4.59,6.27h-7.29l-4.59-6.27h-5.94V2.22h-6.66v-22.2h18.9l4.44,3.33Zm-6.66-3.33v-4.47h-9.99v4.47Z" transform="translate(-2.31 20.01)" fill="#fff"/>
</svg>
