<svg xmlns="http://www.w3.org/2000/svg" width="284.278" height="28.196" viewBox="0 0 284.278 28.196">
  <path id="패스_175" data-name="패스 175" d="M32.338,2.812H9.234L3.61-1.406V-21.09l5.624-4.218h23.1v7.334H13.566V-4.522H32.338Zm15.808,0h-5.32L36.708-1.406V-21.09l6.118-4.218H64.3l6.118,4.218V-1.406L64.3,2.812Zm-3-21.09v14.06H61.978v-14.06Zm65.892-7.068h.038V2.85h-8.436V-11.21L96.672-1.254H88.844l-5.966-9.994V2.85H74.442v-28.2h8.55l9.766,15.58,9.766-15.58Zm40.85,0h.038V2.85h-8.436V-11.21l-5.966,9.956h-7.828l-5.966-9.994V2.85h-8.436v-28.2h8.55l9.766,15.58,9.766-15.58Zm4.788,28.2v-28.2h29.07v7.372h-20.6v3.534h18.126v6.384H165.148v3.534h20.6V2.85ZM220.248-8.436l-4.37,3.306,5.814,7.942h-9.234L206.644-5.13H199.12V2.812h-8.436v-28.12h23.94l5.624,4.218Zm-8.436-4.218v-5.662H199.158v5.662Zm41.8,15.466h-23.1l-5.624-4.218V-21.09l5.624-4.218h23.1v7.334H234.84V-4.522h18.772Zm5.206.038v-28.2h29.07v7.372h-20.6v3.534h18.126v6.384H267.292v3.534h20.6V2.85Z" transform="translate(-3.61 25.346)" fill="#fff"/>
</svg>
