<svg xmlns="http://www.w3.org/2000/svg" width="110.815" height="68.871" viewBox="0 0 110.815 68.871">
  <g id="그룹_28" data-name="그룹 28" transform="translate(0 43.54)">
    <line id="선_6" data-name="선 6" x2="108.612" transform="translate(0 12.4)" fill="none" stroke="#606060" stroke-miterlimit="10" stroke-width="1.5"/>
    <path id="패스_15" data-name="패스 15" d="M1230.015,927.2l12.4,12.4-12.4,12.4" transform="translate(-1132.662 -927.199)" fill="none" stroke="#606060" stroke-miterlimit="10" stroke-width="1.5"/>
  </g>
  <path id="패스_173" data-name="패스 173" d="M29.6-18.676h.028V2.1H23.408V-8.26l-4.4,7.336H13.244l-4.4-7.364V2.1H2.632V-18.676h6.3l7.2,11.48,7.2-11.48ZM40.936,2.072h-3.92L32.508-1.036v-14.5l4.508-3.108h15.82l4.508,3.108v14.5L52.836,2.072Zm-2.212-15.54v10.36h12.4v-10.36ZM82.152-6.216,78.932-3.78l4.284,5.852h-6.8L72.128-3.78H66.584V2.072H60.368v-20.72h17.64l4.144,3.108ZM75.936-9.324V-13.5H66.612v4.172Zm10,11.424V-18.676h21.42v5.432H92.176v2.6h13.356v4.7H92.176v2.6h15.176V2.1Z" transform="translate(0 19.051)" fill="none" stroke="#fff" stroke-width="0.75"/>
</svg>
