<svg xmlns="http://www.w3.org/2000/svg" width="178.833" height="19.182" viewBox="0 0 178.833 19.182">
  <g id="그룹_418" data-name="그룹 418" transform="translate(0 -44.865)">
    <g id="그룹_417" data-name="그룹 417" transform="translate(0 44.865)">
      <g id="그룹_414" data-name="그룹 414">
        <path id="패스_143" data-name="패스 143" d="M480.549,0,476,6.651,471.443,0h-6.956l7.673,11.21v7.972h7.673V11.21L487.5,0Z" transform="translate(-346.144 0)" fill="#fff"/>
        <path id="패스_144" data-name="패스 144" d="M285.38,0l-7.609,19.182h7.067l5.4-13.618,5.4,13.618h7.066L295.1,0Z" transform="translate(-207 0)" fill="#fff"/>
        <path id="패스_145" data-name="패스 145" d="M199.171,0V19.184H217.7l2.283-5.754H205.907V0Z" transform="translate(-148.426 -0.002)" fill="#fff"/>
        <path id="패스_146" data-name="패스 146" d="M3.93,0,0,3.836V15.345l3.93,3.837H23.363V8.842H17.518v4.586H6.729V5.754H23.363V0Z" transform="translate(0 0)" fill="#fff"/>
        <path id="패스_147" data-name="패스 147" d="M104.093,0,96.484,19.182h7.066l5.4-13.618,5.4,13.618h7.067L113.812,0Z" transform="translate(-71.902 0)" fill="#fff"/>
        <rect id="사각형_303" data-name="사각형 303" width="2.211" height="2.211" transform="translate(176.623 16.971)" fill="#fff"/>
        <path id="패스_148" data-name="패스 148" d="M629.922,48.122h3.326V49.6h-3.326Zm4.069-1.848H627.7v7.392h2.224V51.581h1.973l1.525,2.085h2.423l-1.525-2.085,1.153-.865h0V47.383h0l-1.479-1.109Z" transform="translate(-467.772 -34.484)" fill="#fff"/>
        <path id="패스_149" data-name="패스 149" d="M556.312,46.274l-1.481,1.109v5.174l1.481,1.109h6.068V51.735h-4.934V48.2h4.934v-1.93Z" transform="translate(-413.47 -34.484)" fill="#fff"/>
        <path id="패스_150" data-name="패스 150" d="M664.936,48.122h3.326V49.6h-3.326Zm4.077-1.847h-6.294v7.392h2.218V51.455h4.077l1.48-1.109V47.383h0l-1.478-1.109Z" transform="translate(-493.87 -34.484)" fill="#fff"/>
        <path id="패스_151" data-name="패스 151" d="M590.519,48.122h4.415v3.7h-4.415Zm-.612-1.848-1.612,1.109v5.174l1.612,1.109h5.64l1.611-1.109V47.383l-1.611-1.109Z" transform="translate(-438.408 -34.484)" fill="#fff"/>
        <path id="패스_152" data-name="패스 152" d="M397.313,0h-6.171l-3.595,4.551L383.952,0h-7.44l7.315,9.26-7.836,9.92h7.44l4.117-5.211,4.116,5.211h7.44l-7.836-9.92L398.582,0Z" transform="translate(-280.195 -0.002)" fill="#fff"/>
      </g>
    </g>
  </g>
</svg>
