<svg xmlns="http://www.w3.org/2000/svg" width="13.357" height="13.38" viewBox="0 0 13.357 13.38">
  <g id="그룹_153" data-name="그룹 153" transform="translate(-1409.534 -3444.401)">
    <g id="그룹_150" data-name="그룹 150">
      <path id="패스_76" data-name="패스 76" d="M1411.157,3444.4a1.6,1.6,0,0,1,1.6,1.611,1.625,1.625,0,0,1-1.623,1.611,1.6,1.6,0,0,1-1.6-1.611A1.629,1.629,0,0,1,1411.157,3444.4Z" fill="#fff"/>
    </g>
    <g id="그룹_151" data-name="그룹 151">
      <path id="패스_77" data-name="패스 77" d="M1412.517,3448.84l-.068,8.941h-2.78l.068-8.941Z" fill="#fff"/>
    </g>
    <g id="그룹_152" data-name="그룹 152">
      <path id="패스_78" data-name="패스 78" d="M1419.59,3448.622c2.816,0,3.319,1.846,3.3,4.256l-.038,4.9h-2.774l.033-4.344c.008-1.04-.006-2.374-1.428-2.374-1.446,0-1.672,1.128-1.681,2.3l-.034,4.42h-2.78l.068-8.94h2.663l-.01,1.222h.041A2.949,2.949,0,0,1,1419.59,3448.622Z" fill="#fff"/>
    </g>
  </g>
</svg>
