<svg xmlns="http://www.w3.org/2000/svg" width="15.356" height="12.444" viewBox="0 0 15.356 12.444">
  <path id="패스_72" data-name="패스 72" d="M1517.033,3446.358a5.014,5.014,0,0,1-.356.482,5.93,5.93,0,0,1-1.149,1.087l-.054.1a8.435,8.435,0,0,1-.069,1.393,9.331,9.331,0,0,1-2.544,5.273,8.471,8.471,0,0,1-4.339,2.41,9.716,9.716,0,0,1-1.754.206c-.094,0-.189,0-.283,0a8.808,8.808,0,0,1-4.732-1.356l-.076-.047a6.816,6.816,0,0,0,.738.04,6.4,6.4,0,0,0,2.41-.469,6.27,6.27,0,0,0,1.5-.876,3.117,3.117,0,0,1-2.9-2.181,3.059,3.059,0,0,0,.583.057,3.306,3.306,0,0,0,.763-.092l.047-.024a3.077,3.077,0,0,1-2.028-1.44,3.045,3.045,0,0,1-.452-1.669,3.1,3.1,0,0,0,1.4.376,3.147,3.147,0,0,1-.92-4.18,8.9,8.9,0,0,0,6.453,3.286c-.017-.129-.034-.235-.051-.346a3.178,3.178,0,0,1,2.619-3.475,3.535,3.535,0,0,1,.572-.048,3.033,3.033,0,0,1,2.173.924.165.165,0,0,0,.115.054.186.186,0,0,0,.049-.007,6.222,6.222,0,0,0,1.833-.7l.042-.024a3.1,3.1,0,0,1-1.336,1.711A6.073,6.073,0,0,0,1517.033,3446.358Z" transform="translate(-1501.677 -3444.869)" fill="#fff"/>
</svg>
