<svg xmlns="http://www.w3.org/2000/svg" width="14.642" height="14.636" viewBox="0 0 14.642 14.636">
  <g id="그룹_149" data-name="그룹 149" transform="translate(-1455.463 -3443.773)">
    <g id="그룹_146" data-name="그룹 146">
      <path id="패스_73" data-name="패스 73" d="M1466.715,3446.319h.011a.87.87,0,0,1,.869.881.887.887,0,0,1-.888.876.878.878,0,0,1,.008-1.757Z" fill="#fff"/>
    </g>
    <g id="그룹_147" data-name="그룹 147">
      <path id="패스_74" data-name="패스 74" d="M1470.015,3447.447a46.461,46.461,0,0,1-.16,7.871,3.745,3.745,0,0,1-3.232,2.928,36.369,36.369,0,0,1-4.038.163,24.955,24.955,0,0,1-4.067-.216A3.671,3.671,0,0,1,1455.6,3455a40.917,40.917,0,0,1,.139-8.218,3.734,3.734,0,0,1,3.19-2.845,28.483,28.483,0,0,1,3.668-.165c1.367,0,2.745.037,3.575.083a4.029,4.029,0,0,1,2.672,1.093A3.85,3.85,0,0,1,1470.015,3447.447Zm-1.408,7.313a52.447,52.447,0,0,0,.091-7.189,2.463,2.463,0,0,0-2.193-2.334,33.557,33.557,0,0,0-3.66-.138c-1.457,0-2.908.039-3.546.109a2.507,2.507,0,0,0-2.339,2.2,50.056,50.056,0,0,0-.051,7.389,2.375,2.375,0,0,0,1.807,2.069,22.7,22.7,0,0,0,3.937.216c1.536,0,3.043-.048,3.61-.11a2.5,2.5,0,0,0,2.344-2.216" fill="#fff"/>
    </g>
    <g id="그룹_148" data-name="그룹 148">
      <path id="패스_75" data-name="패스 75" d="M1462.815,3447.341a3.721,3.721,0,0,1,3.722,3.757,3.789,3.789,0,0,1-3.785,3.75,3.717,3.717,0,0,1-3.722-3.756A3.782,3.782,0,0,1,1462.815,3447.341Zm-.055,6.179a2.452,2.452,0,0,0,2.448-2.405,2.4,2.4,0,0,0-2.385-2.451h-.022a2.451,2.451,0,0,0-2.448,2.4,2.406,2.406,0,0,0,2.386,2.451h.021" fill="#fff"/>
    </g>
  </g>
</svg>
