<svg id="그룹_231" data-name="그룹 231" xmlns="http://www.w3.org/2000/svg" xmlns:xlink="http://www.w3.org/1999/xlink" width="209.429" height="38.486" viewBox="0 0 209.429 38.486">
  <defs>
    <clipPath id="clip-path">
      <rect id="사각형_174" data-name="사각형 174" width="209.429" height="38.486" fill="none"/>
    </clipPath>
  </defs>
  <g id="그룹_230" data-name="그룹 230" clip-path="url(#clip-path)">
    <path id="패스_103" data-name="패스 103" d="M16.665,0,0,9.621V28.864l16.664,9.621L33.33,28.864V9.621Zm6.6,25.438a7.281,7.281,0,0,1-6.588-4.767.016.016,0,0,0-.03,0,7.281,7.281,0,0,1-6.588,4.767,6,6,0,0,1-6.327-6.2,6,6,0,0,1,6.327-6.2,7.281,7.281,0,0,1,6.588,4.767.016.016,0,0,0,.03,0,7.281,7.281,0,0,1,6.588-4.767,6,6,0,0,1,6.327,6.2,6,6,0,0,1-6.327,6.2" transform="translate(-0.001)" fill="#fff"/>
    <path id="패스_104" data-name="패스 104" d="M664.454,45.209l6.993,10.217v7.266h6.993V55.425l6.993-10.217h-6.34l-4.15,6.062-4.15-6.062h-6.34" transform="translate(-510.158 -34.71)" fill="#fff"/>
    <path id="패스_105" data-name="패스 105" d="M500.468,62.691l-6.934-17.483h-8.859L477.74,62.692h6.441L489.1,50.28l4.923,12.412h6.441" transform="translate(-366.802 -34.711)" fill="#fff"/>
    <path id="패스_106" data-name="패스 106" d="M405.278,57.448V45.211h-6.139V62.693h16.888l2.08-5.245Z" transform="translate(-306.453 -34.712)" fill="#fff"/>
    <path id="패스_107" data-name="패스 107" d="M199.968,48.705V59.2l3.582,3.5h17.712V53.267h-5.327v4.18H206.1V50.453h15.16V45.209H203.55Z" transform="translate(-153.533 -34.711)" fill="#fff"/>
    <path id="패스_108" data-name="패스 108" d="M303.387,45.208l-6.934,17.483h6.441l4.923-12.412,4.923,12.412h6.441l-6.934-17.483Z" transform="translate(-227.612 -34.71)" fill="#fff"/>
    <rect id="사각형_173" data-name="사각형 173" width="2.015" height="2.015" transform="translate(207.415 25.966)" fill="#fff"/>
    <path id="패스_109" data-name="패스 109" d="M834.751,95.531h0V92.493h0L833.4,91.482h-5.737v6.737h2.027v-1.9h1.8l1.389,1.9h2.208l-1.39-1.9Zm-2.025-1.017h-3.032V93.166h3.032Z" transform="translate(-635.47 -70.238)" fill="#fff"/>
    <path id="패스_110" data-name="패스 110" d="M754.8,92.493v4.716l1.35,1.011h5.53V96.46h-4.5V93.242h4.5V91.482h-5.53Z" transform="translate(-579.523 -70.239)" fill="#fff"/>
    <path id="패스_111" data-name="패스 111" d="M869.773,95.194v-2.7h0l-1.348-1.011h-5.737v6.737h2.021V96.2h3.716Zm-2.032-.68h-3.032V93.166h3.032Z" transform="translate(-662.359 -70.238)" fill="#fff"/>
    <path id="패스_112" data-name="패스 112" d="M789.732,91.483l-1.469,1.011V97.21l1.469,1.011h5.141l1.469-1.011V92.494l-1.469-1.011Zm4.583,5.053H790.29V93.167h4.024Z" transform="translate(-605.216 -70.239)" fill="#fff"/>
    <path id="패스_113" data-name="패스 113" d="M589.882,53.651l6.667-8.44h-6.781l-3.276,4.148-3.277-4.148h-6.781l6.667,8.44-7.142,9.042h6.781l3.752-4.749,3.752,4.749h6.781Z" transform="translate(-442.213 -34.712)" fill="#fff"/>
  </g>
</svg>
