<svg
						xmlns="http://www.w3.org/2000/svg"
						width="749.136"
						height="95.664"
						viewBox="0 0 749.136 95.664"
					>
						<path
							id="메인문구"
							d="M-131.592-8.88V3.6h-10.7V-32.016h10.7v12.48h17.76v-12.48h10.7V3.6h-10.7V-8.88ZM-51.816,3.6H-63.528L-65.64-1.776H-84.312L-86.424,3.6H-98.088l14.112-35.616h18.048ZM-80.76-10.656h11.568l-5.76-14.592ZM-10.344-26.64v14.256l-7.1,5.328H-37.032V3.552H-47.688v-35.52h30.24Zm-10.7,10.656v-7.1H-37.032v7.1Zm52.7-10.656v14.256l-7.1,5.328H4.968V3.552H-5.688v-35.52h30.24Zm-10.7,10.656v-7.1H4.968v7.1ZM39.96,3.6V-32.016H52.44V3.6Zm22.032,0V-32.016h36.72V-22.7H72.7v4.464h22.9v8.064H72.7v4.464H98.712V3.6Zm80.3-14.256-5.52,4.176L144.12,3.552H132.456L125.112-6.48h-9.5V3.552H104.952v-35.52h30.24l7.1,5.328ZM131.64-15.984v-7.152H115.656v7.152ZM-320.688,28.032h1.776l-10.8,35.52H-342.1l-5.232-17.328-5.28,17.328h-12.384l-10.8-35.52h11.472l6,19.776.624-2.064,5.376-17.712h9.936l5.376,17.712.624,2.064,6.048-19.776h9.648Zm8.64,35.568V27.984h12.48V63.6Zm20.928-25.536V28.08h39.072v9.984h-13.3V63.648h-12.432V38.064Zm55.344,13.056V63.6h-10.7V27.984h10.7v12.48h17.76V27.984h10.7V63.6h-10.7V51.12Zm56.112-13.056V28.08h39.072v9.984h-13.3V63.648H-166.32V38.064ZM-124.32,51.12V63.6h-10.7V27.984h10.7v12.48h17.76V27.984h10.7V63.6h-10.7V51.12ZM-89.328,63.6V27.984h36.72V37.3H-78.624V41.76h22.9v8.064h-22.9v4.464h26.016V63.6ZM21.984,27.984h.048V63.6H11.376V45.84L3.84,58.416H-6.048l-7.536-12.624V63.6H-24.24V27.984h10.8L-1.1,47.664l12.336-19.68ZM28.032,63.6V27.984h36.72V37.3H38.736V41.76h22.9v8.064h-22.9v4.464H64.752V63.6ZM70.464,38.064V28.08h39.072v9.984H96.24V63.648H83.808V38.064ZM157.536,63.6H145.824l-2.112-5.376H125.04L122.928,63.6H111.264l14.112-35.616h18.048ZM128.592,49.344H140.16L134.4,34.752Zm73.1-21.312H204L189.888,63.6H171.84L157.728,28.032h12.864l10.272,25.92,10.32-25.92H201.7ZM205.824,63.6V27.984h36.72V37.3H216.528V41.76h22.9v8.064h-22.9v4.464h26.016V63.6Zm80.3-14.256-5.52,4.176,7.344,10.032H276.288L268.944,53.52h-9.5V63.552H248.784V28.032h30.24l7.1,5.328Zm-10.656-5.328V36.864H259.488v7.152Zm25.44-2.88h22.416l7.488,5.328V58.176l-7.488,5.376h-31.68v-8.88h28.128V50.448h-20.64l-7.488-5.376V33.36l7.488-5.328h29.808v8.88H300.912ZM336.624,63.6V27.984h36.72V37.3H347.328V41.76h22.9v8.064h-22.9v4.464h26.016V63.6Z"
							transform="translate(375.792 32.016)"
							fill="#fff"
						/>
					</svg>