<svg
							xmlns="http://www.w3.org/2000/svg"
							width="568.416"
							height="95.664"
							viewBox="0 0 568.416 95.664"
						>
							<path
								id="패스_159"
								data-name="패스 159"
								d="M-152.928-32.016h.048V3.6h-10.656V-14.16l-7.536,12.576h-9.888L-188.5-14.208V3.6h-10.656V-32.016h10.8l12.336,19.68,12.336-19.68ZM-146.88,3.6V-32.016h36.72V-22.7h-26.016v4.464h22.9v8.064h-22.9v4.464h26.016V3.6Zm42.432-25.536V-31.92h39.072v9.984h-13.3V3.648H-91.1V-21.936ZM-17.376,3.6H-29.088L-31.2-1.776H-49.872L-51.984,3.6H-63.648l14.112-35.616h18.048ZM-46.32-10.656h11.568l-5.76-14.592Zm73.1-21.312h2.3L14.976,3.6H-3.072L-17.184-31.968H-4.32L5.952-6.048l10.32-25.92H26.784ZM30.912,3.6V-32.016h36.72V-22.7H41.616v4.464h22.9v8.064h-22.9v4.464H67.632V3.6Zm80.3-14.256L105.7-6.48,113.04,3.552H101.376L94.032-6.48h-9.5V3.552H73.872v-35.52h30.24l7.1,5.328ZM100.56-15.984v-7.152H84.576v7.152ZM126-18.864h22.416l7.488,5.328V-1.824l-7.488,5.376h-31.68v-8.88h28.128V-9.552h-20.64l-7.488-5.376V-26.64l7.488-5.328h29.808v8.88H126ZM161.712,3.6V-32.016h36.72V-22.7H172.416v4.464h22.9v8.064h-22.9v4.464h26.016V3.6ZM-246.912,33.36V47.616l-7.1,5.328H-273.6V63.552h-10.656V28.032h30.24Zm-10.7,10.656v-7.1H-273.6v7.1ZM-196.464,63.6h-11.712l-2.112-5.376H-228.96l-2.112,5.376h-11.664l14.112-35.616h18.048Zm-28.944-14.256h11.568l-5.76-14.592Zm70.848,0-5.52,4.176,7.344,10.032H-164.4l-7.344-10.032h-9.5V63.552H-191.9V28.032h30.24l7.1,5.328Zm-10.656-5.328V36.864H-181.2v7.152ZM-103.3,63.6h-11.712l-2.112-5.376h-18.672L-137.9,63.6h-11.664l14.112-35.616h18.048ZM-132.24,49.344h11.568l-5.76-14.592Zm45.5,14.256H-98.448V27.984h32.016l7.152,5.328v24.96L-66.432,63.6Zm16.752-26.3H-86.736V54.288h16.752Zm19.728,26.3V27.984h12.48V63.6Zm28.32-35.616H10.9v9.84H-17.04V53.76H1.776V49.344H-11.952v-7.1H10.9V63.6H-21.936l-7.248-7.1V35.088Zm84.672,0h.048V63.6H52.128V45.84L44.592,58.416H34.7L27.168,45.792V63.6H16.512V27.984h10.8l12.336,19.68,12.336-19.68ZM99.312,41.136h22.416l7.488,5.328V58.176l-7.488,5.376H90.048v-8.88h28.128V50.448H97.536l-7.488-5.376V33.36l7.488-5.328h29.808v8.88H99.312ZM145.44,51.12V63.6h-10.7V27.984h10.7v12.48H163.2V27.984h10.7V63.6H163.2V51.12ZM183.072,63.6V27.984h12.48V63.6ZM240.48,27.984V37.3H215.568v5.472H237.36v8.4H215.568V63.6h-10.7V27.984Zm4.608,10.08V28.08H284.16v9.984h-13.3V63.648H258.432V38.064Z"
								transform="translate(284.256 32.016)"
								fill="#fff"
							/>
						</svg>