<svg xmlns="http://www.w3.org/2000/svg" width="658.848" height="95.616" viewBox="0 0 658.848 95.616">
  <path id="패스_154" data-name="패스 154" d="M-283.344-32.016h.048V3.6h-10.656V-14.16l-7.536,12.576h-9.888l-7.536-12.624V3.6h-10.656V-32.016h10.8l12.336,19.68,12.336-19.68ZM-277.3,3.6V-32.016h36.72V-22.7h-26.016v4.464h22.9v8.064h-22.9v4.464h26.016V3.6Zm42.432-25.536V-31.92h39.072v9.984h-13.3V3.648H-221.52V-21.936ZM-147.792,3.6H-159.5l-2.112-5.376h-18.672L-182.4,3.6h-11.664l14.112-35.616H-161.9Zm-28.944-14.256h11.568l-5.76-14.592Zm73.1-21.312h2.3L-115.44,3.6h-18.048L-147.6-31.968h12.864l10.272,25.92,10.32-25.92h10.512ZM-99.5,3.6V-32.016h36.72V-22.7H-88.8v4.464h22.9v8.064H-88.8v4.464h26.016V3.6Zm80.3-14.256L-24.72-6.48l7.344,10.032H-29.04L-36.384-6.48h-9.5V3.552H-56.544v-35.52H-26.3l7.1,5.328Zm-10.656-5.328v-7.152H-45.84v7.152Zm25.44-2.88H18l7.488,5.328V-1.824L18,3.552H-13.68v-8.88H14.448V-9.552H-6.192l-7.488-5.376V-26.64l7.488-5.328H23.616v8.88H-4.416ZM31.3,3.6V-32.016h36.72V-22.7H42v4.464H64.9v8.064H42v4.464H68.016V3.6ZM149.76-31.968h1.776l-10.8,35.52H128.352L123.12-13.776,117.84,3.552H105.456l-10.8-35.52h11.472l6,19.776.624-2.064,5.376-17.712h9.936l5.376,17.712.624,2.064,6.048-19.776h9.648Zm19.392,35.52h-6.72L154.7-1.776V-26.64l7.728-5.328h27.12l7.728,5.328V-1.776l-7.728,5.328Zm-3.792-26.64v17.76h21.264v-17.76Zm74.448,12.432-5.52,4.176,7.344,10.032H229.968L222.624-6.48h-9.5V3.552H202.464v-35.52H232.7l7.1,5.328Zm-10.656-5.328v-7.152H213.168v7.152ZM284.544-7.1V3.6H245.472V-32.016h12.48V-7.1Zm17.28,10.7H290.112V-32.016h32.016l7.152,5.328v24.96L322.128,3.6Zm16.752-26.3H301.824V-5.712h16.752ZM-169.392,27.984V37.3H-194.3v5.472h21.792v8.4H-194.3V63.6h-10.7V27.984Zm19.1,35.568h-6.72l-7.728-5.328V33.36l7.728-5.328h27.12l7.728,5.328V58.224l-7.728,5.328Zm-3.792-26.64v17.76h21.264V36.912Zm74.448,12.432-5.52,4.176,7.344,10.032H-89.472L-96.816,53.52h-9.5V63.552h-10.656V28.032h30.24l7.1,5.328Zm-10.656-5.328V36.864h-15.984v7.152Zm75.7-10.656V47.616l-7.1,5.328H-41.28V63.552H-51.936V28.032H-21.7ZM-25.3,44.016v-7.1H-41.28v7.1ZM-8.928,63.6V27.984h36.72V37.3H1.776V41.76h22.9v8.064H1.776v4.464H27.792V63.6ZM48,63.552H41.28l-7.728-5.328V33.36l7.728-5.328H68.4l7.728,5.328V58.224L68.4,63.552Zm-3.792-26.64v17.76H65.472V36.912Zm74.016-3.552V47.616l-7.1,5.328H91.536V63.552H80.88V28.032h30.24Zm-10.7,10.656v-7.1H91.536v7.1Zm54.624,8.88V63.6H123.072V27.984h12.48V52.9ZM168,63.6V27.984h36.72V37.3H178.7V41.76h22.9v8.064H178.7v4.464H204.72V63.6Z" transform="translate(329.568 32.016)" fill="#fff"/>
</svg>
