<svg xmlns="http://www.w3.org/2000/svg" width="290.2" height="46.575" viewBox="0 0 290.2 46.575">
  <path id="패스_158" data-name="패스 158" d="M2.325-16.675h16.7l3.7,2.775v4.675L20.6-7.4l2.125,1.8V-.925l-3.7,2.8H2.325Zm14.8,13.7V-5.6H7.9v2.625ZM7.9-9.225h9.225v-2.6H7.9ZM26,1.875v-18.55H45.125v4.85H31.575V-9.5H43.5v4.2H31.575v2.325h13.55v4.85ZM47.475-16.65h6.7l4.4,6.4,4.4-6.4h6.7l-7.4,10.8v7.7h-7.4v-7.7Zm31.45,18.5h-3.5L71.4-.925v-12.95l4.025-2.775H89.55l4.025,2.775V-.925L89.55,1.85ZM76.95-12.025v9.25H88.025v-9.25Zm34.075-4.625h5.55V1.85h-5.9l-8.9-9.6v9.6h-5.55v-18.5H102.1l8.925,9.6ZM125.65,1.875h-6.1v-18.55h16.675L139.95-13.9v13l-3.725,2.775Zm8.725-13.7H125.65v8.85h8.725ZM2.125,16.575v-5.2h20.35v5.2H15.55V29.9H9.075V16.575Zm28.825,6.8v6.5H25.375V11.325H30.95v6.5H40.2v-6.5h5.575v18.55H40.2v-6.5Zm18.225,6.5V11.325H68.3v4.85H54.75V18.5H66.675v4.2H54.75v2.325H68.3v4.85Zm48.7-18.525h5.55v18.5h-5.9l-8.9-9.6v9.6h-5.55V11.35H88.95l8.925,9.6Zm8.675,18.525V11.325h19.125v4.85h-13.55V18.5H124.05v4.2H112.125v2.325h13.55v4.85ZM156.675,11.35h.925l-5.625,18.5h-6.45L142.8,20.825l-2.75,9.025H133.6l-5.625-18.5h5.975l3.125,10.3.325-1.075,2.8-9.225h5.175l2.8,9.225.325,1.075,3.15-10.3h5.025Zm42.15,0h.925l-5.625,18.5h-6.45l-2.725-9.025L182.2,29.85h-6.45l-5.625-18.5H176.1l3.125,10.3.325-1.075,2.8-9.225h5.175l2.8,9.225.325,1.075,3.15-10.3h5.025Zm10.1,18.5h-3.5L201.4,27.075V14.125l4.025-2.775H219.55l4.025,2.775v12.95L219.55,29.85ZM206.95,15.975v9.25h11.075v-9.25Zm38.775,6.475-2.875,2.175,3.825,5.225H240.6l-3.825-5.225h-4.95V29.85h-5.55V11.35h15.75l3.7,2.775Zm-5.55-2.775V15.95H231.85v3.725Zm28.85,4.625v5.575h-20.35V11.325h6.5V24.3Zm9,5.575h-6.1V11.325H288.6l3.725,2.775v13L288.6,29.875Zm8.725-13.7h-8.725v8.85h8.725Z" transform="translate(-2.125 16.675)" fill="#fff"/>
</svg>
