<svg
						xmlns="http://www.w3.org/2000/svg"
						width="901.986"
						height="37.893"
						viewBox="0 0 901.986 37.893"
					>
						<path
							id="패스_169"
							data-name="패스 169"
							d="M4.743-34.017H38.811l7.548,5.661v9.537L42.024-15.1l4.335,3.672v9.537L38.811,3.825H4.743ZM34.935-6.069v-5.355H16.116v5.355ZM16.116-18.819H34.935v-5.3H16.116ZM53.04,3.825V-34.017H92.055v9.894H64.413v4.743H88.74v8.568H64.413v4.743H92.055V3.825ZM96.849-33.966h13.668l8.976,13.056,8.976-13.056h13.668l-15.1,22.032V3.774h-15.1V-11.934Zm64.158,37.74h-7.14l-8.211-5.661V-28.305l8.211-5.661h28.815l8.211,5.661V-1.887l-8.211,5.661Zm-4.029-28.305v18.87h22.593v-18.87Zm69.513-9.435h11.322V3.774H225.777L207.621-15.81V3.774H196.3v-37.74h11.985l18.207,19.584ZM256.326,3.825H243.882V-34.017H277.9l7.6,5.661v26.52l-7.6,5.661Zm17.8-27.948h-17.8V-6.069h17.8Zm40.6.816V-33.915h41.514v10.608H342.108V3.876H328.9V-23.307Zm58.8,13.872V3.825H362.151V-34.017h11.373v13.26h18.87v-13.26h11.373V3.825H392.394V-9.435ZM410.7,3.825V-34.017h39.015v9.894H422.076v4.743H446.4v8.568H422.076v4.743h27.642V3.825Zm99.348-37.791h11.322V3.774H509.337L491.181-15.81V3.774H479.859v-37.74h11.985l18.207,19.584Zm17.7,37.791V-34.017h39.015v9.894H539.121v4.743h24.327v8.568H539.121v4.743h27.642V3.825ZM630-33.966h1.887L620.415,3.774H607.257L601.7-14.637l-5.61,18.411H582.93l-11.475-37.74h12.189l6.375,21.012.663-2.193,5.712-18.819h10.557l5.712,18.819.663,2.193,6.426-21.012H630Zm85.986,0h1.887L706.4,3.774H693.243l-5.559-18.411-5.61,18.411H668.916l-11.475-37.74H669.63L676-12.954l.663-2.193,5.712-18.819h10.557l5.712,18.819.663,2.193,6.426-21.012h10.251Zm20.6,37.74h-7.14l-8.211-5.661V-28.305l8.211-5.661h28.815l8.211,5.661V-1.887l-8.211,5.661Zm-4.029-28.305v18.87h22.593v-18.87Zm79.1,13.209L805.8-6.885l7.8,10.659H801.21l-7.8-10.659h-10.1V3.774H771.987v-37.74h32.13l7.548,5.661Zm-11.322-5.661v-7.6H783.36v7.6ZM859.2-7.548V3.825H817.683V-34.017h13.26V-7.548Zm18.36,11.373H865.113V-34.017H899.13l7.6,5.661v26.52l-7.6,5.661Zm17.8-27.948h-17.8V-6.069h17.8Z"
							transform="translate(-4.743 34.017)"
							fill="#fff"
						/>
					</svg>