<svg
						xmlns="http://www.w3.org/2000/svg"
						width="1052.13"
						height="37.893"
						viewBox="0 0 1052.13 37.893"
					>
						<path
							id="패스_167"
							data-name="패스 167"
							d="M53.907-34.017h.051V3.825H42.636v-18.87L34.629-1.683H24.123L16.116-15.1V3.825H4.794V-34.017H16.269l13.107,20.91,13.107-20.91ZM59.364-1.836V-33.915H72.573v27.03h15.1v-27.03h13.209V-1.836L93.33,3.825H66.912Zm87.975-5.712V3.825H105.825V-34.017h13.26V-7.548Zm2.244-15.759V-33.915H191.1v10.608H176.97V3.876H163.761V-23.307ZM197.319,3.825V-34.017h13.26V3.825Zm92.616-37.842h.051V3.825H278.664v-18.87L270.657-1.683H260.151L252.144-15.1V3.825H240.822V-34.017H252.3L265.4-13.107l13.107-20.91Zm6.426,37.842V-34.017h39.015v9.894H307.734v4.743h24.327v8.568H307.734v4.743h27.642V3.825Zm45.084-27.132V-33.915h41.514v10.608H368.832V3.876H355.623V-23.307ZM433.959,3.825H421.515l-2.244-5.712H399.432l-2.244,5.712H384.8l14.994-37.842h19.176ZM403.206-11.322H415.5l-6.12-15.5Zm77.673-22.644h2.448L468.333,3.825H449.157L434.163-33.966h13.668l10.914,27.54,10.965-27.54h11.169Zm4.386,37.791V-34.017H524.28v9.894H496.638v4.743h24.327v8.568H496.638v4.743H524.28V3.825Zm85.323-15.147-5.865,4.437,7.8,10.659H560.133l-7.8-10.659h-10.1V3.774H530.91v-37.74h32.13l7.548,5.661Zm-11.322-5.661v-7.6H542.283v7.6Zm27.03-3.06h23.817l7.956,5.661V-1.938l-7.956,5.712h-33.66V-5.661h29.886v-4.488h-21.93l-7.956-5.712V-28.305l7.956-5.661H616.08v9.435H586.3ZM624.24,3.825V-34.017h39.015v9.894H635.613v4.743H659.94v8.568H635.613v4.743h27.642V3.825Zm82.008,0H693.8V-34.017h34.017l7.6,5.661v26.52l-7.6,5.661Zm17.8-27.948h-17.8V-6.069h17.8Zm57.222,12.8L775.4-6.885l7.8,10.659H770.814l-7.8-10.659h-10.1V3.774H741.591v-37.74h32.13l7.548,5.661Zm-11.322-5.661v-7.6H752.964v7.6ZM788.154,3.825V-34.017h39.015v9.894H799.527v4.743h24.327v8.568H799.527v4.743h27.642V3.825Zm93.84,0H869.55l-2.244-5.712H847.467l-2.244,5.712H832.83l14.994-37.842H867ZM851.241-11.322h12.291l-6.12-15.5ZM935.85-34.017h.051V3.825H924.579v-18.87L916.572-1.683H906.066L898.059-15.1V3.825H886.737V-34.017h11.475l13.107,20.91,13.107-20.91ZM980.118,3.774h-7.14l-8.211-5.661V-28.305l8.211-5.661h28.815L1010-28.305V-1.887l-8.211,5.661Zm-4.029-28.305v18.87h22.593v-18.87Zm69.513-9.435h11.322V3.774h-12.036L1026.732-15.81V3.774H1015.41v-37.74H1027.4L1045.6-14.382Z"
							transform="translate(-4.794 34.017)"
							fill="#fff"
						/>
					</svg>