<svg xmlns="http://www.w3.org/2000/svg" width="160.433" height="31.132" viewBox="0 0 160.433 31.132">
  <path id="패스_192" data-name="패스 192" d="M2.15,0H40.463V-7.869H11.395c0-.817.473-1.591,2.021-1.763l17.845-1.505c6.665-.817,9.632-3.87,9.632-9.2,0-5.289-3.655-10.277-13.072-10.277H16.039C4.3-30.616,2.795-22.661,2.795-19.737h9.5c.086-1.419,1.075-2.666,3.741-2.666H27.821c2.623,0,3.44.989,3.44,2.15s-1.075,1.935-2.537,2.107L11.653-16.9c-6.192.688-9.5,3.612-9.5,9.03ZM57.018.516H68.542c9.761,0,15.91-6.751,15.91-15.566,0-8.772-6.149-15.566-15.91-15.566H57.018c-9.761,0-15.91,6.794-15.91,15.566C41.108-6.235,47.257.516,57.018.516Zm0-9.116c-3.87,0-6.278-2.58-6.278-6.45,0-3.827,2.408-6.45,6.278-6.45H68.542c3.87,0,6.278,2.623,6.278,6.45,0,3.87-2.408,6.45-6.278,6.45ZM84.667,0H122.98V-7.869H93.912c0-.817.473-1.591,2.021-1.763l17.845-1.505c6.665-.817,9.632-3.87,9.632-9.2,0-5.289-3.655-10.277-13.072-10.277H98.556c-11.739,0-13.244,7.955-13.244,10.879h9.5C94.9-21.156,95.89-22.4,98.556-22.4h11.782c2.623,0,3.44.989,3.44,2.15s-1.075,1.935-2.537,2.107L94.17-16.9c-6.192.688-9.5,3.612-9.5,9.03Zm53.062.516h11.524c9.675,0,13.33-4.687,13.33-9.976a6.664,6.664,0,0,0-3.827-6.278,6.365,6.365,0,0,0,2.967-5.59c0-4.6-3.053-9.288-12.943-9.288H137.256c-9.546,0-12.513,5.547-12.513,10.879h8.643c0-1.376.989-2.666,3.655-2.666h11.7c2.408.043,3.354,1.032,3.354,2.15,0,1.247-1.118,1.892-3.01,1.892H134.375V-11.7h15.566c1.892,0,3.01.645,3.01,1.849,0,1.161-1.118,2.15-3.7,2.15H137.729c-3.526,0-4.515-1.247-4.6-2.666h-8.643C124.485-7.439,125.99.516,137.729.516Z" transform="translate(-2.15 30.616)" fill="#fff" opacity="0.246"/>
</svg>
