<svg xmlns="http://www.w3.org/2000/svg" width="142.932" height="31.132" viewBox="0 0 142.932 31.132">
  <path id="패스_185" data-name="패스 185" d="M2.15,0H40.463V-7.869H11.395c0-.817.473-1.591,2.021-1.763l17.845-1.505c6.665-.817,9.632-3.87,9.632-9.2,0-5.289-3.655-10.277-13.072-10.277H16.039C4.3-30.616,2.795-22.661,2.795-19.737h9.5c.086-1.419,1.075-2.666,3.741-2.666H27.821c2.623,0,3.44.989,3.44,2.15s-1.075,1.935-2.537,2.107L11.653-16.9c-6.192.688-9.5,3.612-9.5,9.03ZM55.986.516H67.51c9.761,0,15.91-6.751,15.91-15.566,0-8.772-6.149-15.566-15.91-15.566H55.986c-9.761,0-15.91,6.794-15.91,15.566C40.076-6.235,46.225.516,55.986.516Zm0-9.116c-3.87,0-6.278-2.58-6.278-6.45,0-3.827,2.408-6.45,6.278-6.45H67.51c3.87,0,6.278,2.623,6.278,6.45,0,3.87-2.408,6.45-6.278,6.45ZM98.857-30.1l-16.3,1.72v8.256l16.3-1.72V0h9.46V-30.1ZM114.509.172h12.986L141-10.406a10.322,10.322,0,0,0,4.085-8.514c0-5.332-3.139-11.524-13.029-11.524H120.529c-9.89,0-13.029,6.192-13.029,11.524,0,5.375,3.225,10.449,11.825,10.965H125Zm6.02-15.781a3.174,3.174,0,0,1-3.4-3.311,3.174,3.174,0,0,1,3.4-3.311h11.524a3.174,3.174,0,0,1,3.4,3.311,3.174,3.174,0,0,1-3.4,3.311Z" transform="translate(-2.15 30.616)" fill="#fff"/>
</svg>
