<svg xmlns="http://www.w3.org/2000/svg" width="273.264" height="83.832" viewBox="0 0 273.264 83.832">
  <path id="패스_150" data-name="패스 150" d="M-84.456,1.776H-99.048L-102.6-.888V-13.32l3.552-2.664h14.592v4.632H-96.312v8.5h11.856Zm9.624,0h-3.36L-82.056-.888V-13.32l3.864-2.664h13.56l3.864,2.664V-.888l-3.864,2.664Zm-1.9-13.32v8.88H-66.1v-8.88Zm32.352-4.44h5.328V1.776h-5.664L-53.256-7.44V1.776h-5.328v-17.76h5.64l8.568,9.216Zm21.84,0h5.328V1.776h-5.664L-31.416-7.44V1.776h-5.328v-17.76h5.64l8.568,9.216ZM-14.568,1.8V-16.008H3.792v4.656H-9.216V-9.12H2.232v4.032H-9.216v2.232H3.792V1.8Zm39.24-.024H10.08L6.528-.888V-13.32l3.552-2.664H24.672v4.632H12.816v8.5H24.672Zm2.376-12.744V-15.96H46.584v4.992H39.936V1.824H33.72V-10.968ZM50.472,1.8V-16.008h6.24V1.8ZM75-15.984h5.328V1.776H74.664L66.12-7.44V1.776H60.792v-17.76h5.64L75-6.768Zm11.112-.024h16.416v4.92H88.56V-3.12h9.408V-5.328H91.1V-8.88h11.424V1.8H86.112L82.488-1.752v-10.7ZM-136.92,22.032V17.04h19.536v4.992h-6.648V34.824h-6.216V22.032Zm27.312,6.528V34.8h-5.352V16.992h5.352v6.24h8.88v-6.24h5.352V34.8h-5.352V28.56Zm17.136,6.24V16.992h18.36v4.656H-87.12V23.88h11.448v4.032H-87.12v2.232h13.008V34.8Zm54.936-17.808h.024V34.8H-42.84V25.92l-3.768,6.288h-4.944L-55.32,25.9v8.9h-5.328V16.992h5.4l6.168,9.84,6.168-9.84ZM-34.872,34.8V16.992h18.36v4.656H-29.52V23.88h11.448v4.032H-29.52v2.232h13.008V34.8Zm20.856-12.768V17.04H5.52v4.992H-1.128V34.824H-7.344V22.032ZM29.52,34.8H23.664l-1.056-2.688H13.272L12.216,34.8H6.384L13.44,16.992h9.024ZM15.048,27.672h5.784l-2.88-7.3ZM51.6,17.016h1.152L45.7,34.8H36.672L29.616,17.016h6.432l5.136,12.96,5.16-12.96H51.6ZM53.664,34.8V16.992h18.36v4.656H59.016V23.88H70.464v4.032H59.016v2.232H72.024V34.8Zm39.792-7.128L90.7,29.76l3.672,5.016H88.536L84.864,29.76H80.112v5.016H74.784V17.016H89.9l3.552,2.664Zm-5.328-2.664V21.432H80.136v3.576Zm12.36-1.44H111.7l3.744,2.664v5.856L111.7,34.776H95.856v-4.44H109.92V28.224H99.6l-3.744-2.688V19.68L99.6,17.016h14.9v4.44H100.488Zm17.5,11.232V16.992h18.36v4.656H123.336V23.88h11.448v4.032H123.336v2.232h13.008V34.8Zm-206.052,33h-5.856l-1.056-2.688h-9.336l-1.056,2.688H-111.2l7.056-17.808h9.024Zm-14.472-7.128h5.784l-2.88-7.3Zm30.552-10.656h5.328v17.76h-5.664l-8.544-9.216v9.216H-86.2V50.016h5.64l8.568,9.216ZM-58.308,67.8h-5.856V49.992h16.008l3.576,2.664v12.48L-48.156,67.8Zm8.376-13.152h-8.376v8.5h8.376Zm37.32,6.024-2.76,2.088,3.672,5.016h-5.832L-21.2,62.76h-4.752v5.016h-5.328V50.016h15.12l3.552,2.664Zm-5.328-2.664V54.432h-7.992v3.576ZM-9.732,67.8V49.992H8.628v4.656H-4.38V56.88H7.068v4.032H-4.38v2.232H8.628V67.8Zm43.8,0H28.212l-1.056-2.688H17.82L16.764,67.8H10.932l7.056-17.808h9.024ZM19.6,60.672H25.38l-2.88-7.3ZM55.4,62.448V67.8H35.868V49.992h6.24V62.448ZM59.292,67.8V49.992h6.24V67.8ZM69.4,55.032V50.04H88.932v4.992H82.284V67.824H76.068V55.032Zm20.952-5.016H96.78L101,56.16l4.224-6.144h6.432l-7.1,10.368v7.392h-7.1V60.384Z" transform="translate(136.92 16.008)" fill="#fff"/>
</svg>
