<svg id="그룹_616" data-name="그룹 616" xmlns="http://www.w3.org/2000/svg" xmlns:xlink="http://www.w3.org/1999/xlink" width="26.303" height="18.407" viewBox="0 0 26.303 18.407">
  <defs>
    <clipPath id="clip-path">
      <rect id="사각형_470" data-name="사각형 470" width="26.303" height="18.407" fill="none"/>
    </clipPath>
  </defs>
  <g id="그룹_585" data-name="그룹 585" clip-path="url(#clip-path)">
    <path id="패스_250" data-name="패스 250" d="M22.729,18.206s-7.183.2-9.578.2-9.578-.2-9.578-.2A3.383,3.383,0,0,1,.2,14.833S0,10.612,0,9.2s.2-5.63.2-5.63A3.383,3.383,0,0,1,3.574.2S10.756,0,13.151,0s9.578.2,9.578.2A3.383,3.383,0,0,1,26.1,3.573s.2,4.217.2,5.63-.2,5.63-.2,5.63a3.383,3.383,0,0,1-3.373,3.373" transform="translate(0 0.001)" fill="#fff"/>
    <path id="패스_251" data-name="패스 251" d="M111.326,61.529V53.3l6.645,4.112Z" transform="translate(-100.693 -48.213)" fill-rule="evenodd"/>
  </g>
</svg>
