<svg id="그룹_468" data-name="그룹 468" xmlns="http://www.w3.org/2000/svg" xmlns:xlink="http://www.w3.org/1999/xlink" width="25.398" height="20.881" viewBox="0 0 25.398 20.881">
  <defs>
    <clipPath id="clip-path">
      <rect id="사각형_403" data-name="사각형 403" width="25.398" height="20.881" fill="#fff"/>
    </clipPath>
  </defs>
  <g id="그룹_467" data-name="그룹 467" clip-path="url(#clip-path)">
    <path id="패스_213" data-name="패스 213" d="M28.769,49.354a.984.984,0,0,0-.727.308,1.07,1.07,0,0,0,0,1.49.985.985,0,0,0,.727.308,1.053,1.053,0,0,0,0-2.106" transform="translate(-23.395 -41.626)" fill="#fff"/>
    <path id="패스_214" data-name="패스 214" d="M84.895,49.3a.979.979,0,0,0-.727.308,1.068,1.068,0,0,0,0,1.49.982.982,0,0,0,.727.308,1.053,1.053,0,0,0,0-2.106" transform="translate(-70.733 -41.579)" fill="#fff"/>
    <path id="패스_215" data-name="패스 215" d="M122.327,49.354a.986.986,0,0,0-.728.308,1.07,1.07,0,0,0,0,1.49.986.986,0,0,0,.728.308,1.053,1.053,0,0,0,0-2.106" transform="translate(-102.304 -41.626)" fill="#fff"/>
    <path id="패스_216" data-name="패스 216" d="M22.629,0H2.769A2.777,2.777,0,0,0,0,2.769V14A2.777,2.777,0,0,0,2.769,16.77h7.8s1.506,4.111,2.055,4.111S14.8,16.77,14.8,16.77h7.829A2.778,2.778,0,0,0,25.4,14V2.769A2.777,2.777,0,0,0,22.629,0M7.382,10.369A2.145,2.145,0,0,1,5.728,11a2.155,2.155,0,0,1-1.349-.423H4.36v.316H2.869v-6.5H4.36V6.875h.019A2.451,2.451,0,0,1,5.95,6.393,1.972,1.972,0,0,1,7.39,7.1,2.606,2.606,0,0,1,7.97,8.773a2.135,2.135,0,0,1-.588,1.6m3.2.572H9.062V6.916a.968.968,0,0,0-.734-1.051V4.255a2.563,2.563,0,0,1,2.255,2.712Zm5.967-1.233a2.363,2.363,0,0,1-.559.78,2.543,2.543,0,0,1-.833.519,2.755,2.755,0,0,1-.994.181,2.682,2.682,0,0,1-.978-.181,2.61,2.61,0,0,1-.834-.519A2.471,2.471,0,0,1,11.78,9.7a2.272,2.272,0,0,1,0-1.834,2.482,2.482,0,0,1,.571-.789,2.615,2.615,0,0,1,.834-.52,2.676,2.676,0,0,1,.978-.18,2.748,2.748,0,0,1,.994.18,2.547,2.547,0,0,1,.833.52,2.36,2.36,0,0,1,.559.78,2.344,2.344,0,0,1,0,1.852m5.98.646a2.962,2.962,0,0,1-.726,2.322,2.589,2.589,0,0,1-2.2.512V12.006a1.262,1.262,0,0,0,1.439-1.124v-.3h-.018a1.688,1.688,0,0,1-1.5.64,1.922,1.922,0,0,1-1.5-.647A2.517,2.517,0,0,1,17.49,8.88a2.8,2.8,0,0,1,.6-1.889,2.056,2.056,0,0,1,1.623-.684,1.757,1.757,0,0,1,1.314.47h.018V6.42h1.482Z" fill="#fff"/>
  </g>
</svg>
