<svg xmlns="http://www.w3.org/2000/svg" width="8.697" height="16.538" viewBox="0 0 8.697 16.538">
  <path id="패스_71" data-name="패스 71" d="M1325.245,3442.822c.442,0,.887.024,1.328.044.288.011.576.053.846.082l-.02,2.663h-.212c-.292,0-.584,0-.877,0-.219,0-.438,0-.657.01-.706.023-1.225.288-1.261,1.169-.023.635-.039,2.037-.04,2.111l1.436,0c.351,0,.694,0,.933,0h.57c-.143,1.023-.273,2-.416,2.992h-2.522l-.057,7.471h-3.1l.057-7.483h-2.533l.022-2.974h2.546v-.224c.005-.6,0-1.2.02-1.8a7.421,7.421,0,0,1,.1-1.14,3.386,3.386,0,0,1,1.357-2.222,3.9,3.9,0,0,1,2.233-.694Z" transform="translate(-1318.722 -3442.822)" fill="#fff"/>
</svg>
