<svg xmlns="http://www.w3.org/2000/svg" width="15.127" height="10.598" viewBox="0 0 15.127 10.598">
  <path id="패스_79" data-name="패스 79" d="M1376.822,3447.167a1.785,1.785,0,0,0-1.132-1.094,37.988,37.988,0,0,0-5.977-.281c-2.213,0-4.457.062-5.621.187a1.893,1.893,0,0,0-1.268.67c-.979,1.141-.87,6.925-.381,8.307a1.75,1.75,0,0,0,1.155,1.128,35.514,35.514,0,0,0,5.9.306c2.9,0,5.859-.125,6.369-.388a1.819,1.819,0,0,0,.823-.829C1377.341,3453.8,1377.363,3448.595,1376.822,3447.167Zm-6.18,4.718-2.879,1.489c.012-1.64.025-3.256.037-4.89l4.678,2.451-1.311.678Z" transform="translate(-1362.078 -3445.792)" fill="#fff"/>
</svg>
