<svg xmlns="http://www.w3.org/2000/svg" width="45" height="50" viewBox="0 0 45 50">
  <path id="패스_22" data-name="패스 22" d="M88.991,55.428l-22.5,12.5v25l22.5,12.5,22.5-12.5v-25Zm17.458,25.018V80.6c0,.077,0,.155-.006.232v.035a8.212,8.212,0,0,1-1.593,4.427,7.9,7.9,0,0,1-1.516,1.552c-.143.112-.292.219-.445.321a7.668,7.668,0,0,1-2.59,1.1,8.238,8.238,0,0,1-1.812.19h-.716a7.834,7.834,0,0,1-2.986-.572,8.488,8.488,0,0,1-2.558-1.4,9.379,9.379,0,0,1-1.092-1.025,11.412,11.412,0,0,1-.982-1.248,15.129,15.129,0,0,1-1.147-2.023,15.107,15.107,0,0,1-1.146,2.023,11.421,11.421,0,0,1-.983,1.248c-.115.127-.233.248-.352.367a8.646,8.646,0,0,1-3.306,2.055,7.72,7.72,0,0,1-1.448.427,8.182,8.182,0,0,1-1.538.142h-.715a8.287,8.287,0,0,1-1.812-.191,7.631,7.631,0,0,1-2.59-1.1c-.153-.1-.3-.208-.446-.321a7.925,7.925,0,0,1-1.515-1.552,8.21,8.21,0,0,1-1.594-4.427v-.035c0-.076,0-.155-.006-.232v-.34c0-.077,0-.155.006-.232v-.035a8.162,8.162,0,0,1,3.54-6.295,7.62,7.62,0,0,1,2.027-.955,8.118,8.118,0,0,1,2.375-.342h.715a8.018,8.018,0,0,1,1.538.142,7.645,7.645,0,0,1,1.448.427,8.669,8.669,0,0,1,1.765.835,9.011,9.011,0,0,1,.794.561,9.31,9.31,0,0,1,.743.658c.119.119.237.241.352.367a11.22,11.22,0,0,1,.983,1.249,14.941,14.941,0,0,1,1.146,2.022,15.055,15.055,0,0,1,1.147-2.022,11.329,11.329,0,0,1,.982-1.249,9.379,9.379,0,0,1,1.092-1.025,8.464,8.464,0,0,1,2.558-1.4,7.816,7.816,0,0,1,2.986-.573h.716a8.106,8.106,0,0,1,2.374.342,7.688,7.688,0,0,1,2.028.955,8.146,8.146,0,0,1,3.554,6.3v.035c0,.077,0,.155.006.232v.17c0,.006.019.016.019.023Z" transform="translate(-66.491 -55.428)" fill="#fff" style="mix-blend-mode: difference;isolation: isolate"/>
</svg>
