<svg xmlns="http://www.w3.org/2000/svg" width="36.421" height="40.469" viewBox="0 0 36.421 40.469">
  <path id="로고" d="M55.258,25.227,37.048,35.345V55.579L55.258,65.7,73.469,55.579V35.345Zm14.13,20.249V45.6c0,.063,0,.126,0,.188v.029a6.657,6.657,0,0,1-1.29,3.583,6.429,6.429,0,0,1-1.227,1.256q-.174.136-.36.259a6.181,6.181,0,0,1-2.1.894,6.686,6.686,0,0,1-1.466.154h-.579a6.319,6.319,0,0,1-2.417-.464,6.942,6.942,0,0,1-1.428-.676,7.218,7.218,0,0,1-.643-.453,7.713,7.713,0,0,1-.883-.83,9.084,9.084,0,0,1-.795-1.011,12.239,12.239,0,0,1-.929-1.637,12.117,12.117,0,0,1-.927,1.637,9.093,9.093,0,0,1-.8,1.011c-.093.1-.188.2-.285.3A6.982,6.982,0,0,1,50.587,51.5a6.2,6.2,0,0,1-1.173.347,6.642,6.642,0,0,1-1.244.114h-.579a6.686,6.686,0,0,1-1.466-.154,6.181,6.181,0,0,1-2.1-.894c-.123-.082-.244-.168-.36-.26A6.4,6.4,0,0,1,42.441,49.4a6.649,6.649,0,0,1-1.29-3.583v-.029c0-.062,0-.125,0-.188V45.32c0-.063,0-.125,0-.188V45.1a6.611,6.611,0,0,1,2.865-5.1,6.2,6.2,0,0,1,1.641-.773,6.571,6.571,0,0,1,1.922-.277h.579a6.559,6.559,0,0,1,1.244.115,6.125,6.125,0,0,1,1.173.346A6.942,6.942,0,0,1,52,40.1a7.028,7.028,0,0,1,.643.454,7.612,7.612,0,0,1,.6.532c.1.1.192.195.285.3a9.178,9.178,0,0,1,.795,1.011,12.174,12.174,0,0,1,.928,1.636,12.284,12.284,0,0,1,.928-1.636,9.187,9.187,0,0,1,.8-1.011,7.454,7.454,0,0,1,.883-.829,6.867,6.867,0,0,1,2.071-1.13,6.311,6.311,0,0,1,2.416-.464h.579a6.571,6.571,0,0,1,1.922.277,6.168,6.168,0,0,1,1.641.773,6.588,6.588,0,0,1,2.877,5.1v.029c0,.063,0,.125.005.188v.138s.015.013.015.018Z" transform="translate(-37.048 -25.227)" fill="#fff"/>
</svg>
