<svg xmlns="http://www.w3.org/2000/svg" width="674.928" height="95.664" viewBox="0 0 674.928 95.664">
  <path id="패스_157" data-name="패스 157" d="M-152.928-32.016h.048V3.6h-10.656V-14.16l-7.536,12.576h-9.888L-188.5-14.208V3.6h-10.656V-32.016h10.8l12.336,19.68,12.336-19.68ZM-146.88,3.6V-32.016h36.72V-22.7h-26.016v4.464h22.9v8.064h-22.9v4.464h26.016V3.6Zm42.432-25.536V-31.92h39.072v9.984h-13.3V3.648H-91.1V-21.936ZM-17.376,3.6H-29.088L-31.2-1.776H-49.872L-51.984,3.6H-63.648l14.112-35.616h18.048ZM-46.32-10.656h11.568l-5.76-14.592Zm73.1-21.312h2.3L14.976,3.6H-3.072L-17.184-31.968H-4.32L5.952-6.048l10.32-25.92H26.784ZM30.912,3.6V-32.016h36.72V-22.7H41.616v4.464h22.9v8.064h-22.9v4.464H67.632V3.6Zm80.3-14.256L105.7-6.48,113.04,3.552H101.376L94.032-6.48h-9.5V3.552H73.872v-35.52h30.24l7.1,5.328ZM100.56-15.984v-7.152H84.576v7.152ZM126-18.864h22.416l7.488,5.328V-1.824l-7.488,5.376h-31.68v-8.88h28.128V-9.552h-20.64l-7.488-5.376V-26.64l7.488-5.328h29.808v8.88H126ZM161.712,3.6V-32.016h36.72V-22.7H172.416v4.464h22.9v8.064h-22.9v4.464h26.016V3.6ZM-337.344,27.984h32.064l7.1,5.328v8.976l-4.08,3.5,4.08,3.456v8.976l-7.1,5.376h-32.064Zm28.416,26.3v-5.04H-326.64v5.04Zm-17.712-12h17.712V37.3H-326.64ZM-291.888,63.6V27.984h36.72V37.3h-26.016V41.76h22.9v8.064h-22.9v4.464h26.016V63.6Zm41.232-35.568h12.864l8.448,12.288,8.448-12.288h12.864L-222.24,48.768V63.552h-14.208V48.768Zm60.384,35.52h-6.72l-7.728-5.328V33.36l7.728-5.328h27.12l7.728,5.328V58.224l-7.728,5.328Zm-3.792-26.64v17.76H-172.8V36.912Zm65.424-8.88h10.656v35.52h-11.328L-146.4,45.12V63.552h-10.656V28.032h11.28l17.136,18.432ZM-100.56,63.6h-11.712V27.984h32.016l7.152,5.328v24.96L-80.256,63.6Zm16.752-26.3H-100.56V54.288h16.752Zm38.208.768V28.08H-6.528v9.984h-13.3V63.648H-32.256V38.064ZM9.744,51.12V63.6H-.96V27.984h10.7v12.48H27.5V27.984h10.7V63.6H27.5V51.12ZM44.736,63.6V27.984h36.72V37.3H55.44V41.76h22.9v8.064H55.44v4.464H81.456V63.6ZM148.752,52.9V63.6H109.68V27.984h12.48V52.9Zm8.5,10.7V27.984h12.48V63.6Zm67.584-35.616h.048V63.6H214.224V45.84l-7.536,12.576H196.8l-7.536-12.624V63.6H178.608V27.984h10.8l12.336,19.68,12.336-19.68ZM233.52,63.6V27.984H246V63.6Zm20.928-25.536V28.08H293.52v9.984h-13.3V63.648H267.792V38.064Zm53.232,3.072H330.1l7.488,5.328V58.176L330.1,63.552h-31.68v-8.88h28.128V50.448H305.9l-7.488-5.376V33.36l7.488-5.328h29.808v8.88H307.68Z" transform="translate(337.344 32.016)" fill="#fff"/>
</svg>
