<svg xmlns="http://www.w3.org/2000/svg" width="265.743" height="422.136" viewBox="0 0 265.743 422.136">
  <g id="그룹_344" data-name="그룹 344" transform="translate(-56.458 -3590.859)">
    <text id="입사지원" transform="translate(82.458 3655.859)" fill="#fff" font-size="15" font-family="NotoSansKR-Bold, Noto Sans KR" font-weight="700" letter-spacing="-0.025em"><tspan x="0" y="0">입사지원</tspan></text>
    <text id="서류전형" transform="translate(135.458 3757.681)" fill="#fff" font-size="15" font-family="NotoSansKR-Bold, Noto Sans KR" font-weight="700" letter-spacing="-0.025em"><tspan x="0" y="0">서류전형</tspan></text>
    <text id="면접1_2차" data-name="면접1,2차" transform="translate(185.458 3859.338)" fill="#fff" font-size="15" font-family="NotoSansKR-Bold, Noto Sans KR" font-weight="700" letter-spacing="-0.025em"><tspan x="0" y="0">면접1,2차</tspan></text>
    <text id="최종합격" transform="translate(241.706 3959.176)" fill="#fff" font-size="15" font-family="NotoSansKR-Bold, Noto Sans KR" font-weight="700" letter-spacing="-0.025em"><tspan x="0" y="0">최종합격</tspan></text>
    <g id="패스_29" data-name="패스 29" transform="translate(-5326.595 985.088)" fill="none" stroke-miterlimit="10" opacity="0.5">
      <path d="M5436.3,2605.771l-53.246,29.042V2692.9l53.246,29.04,53.249-29.04v-58.083Z" stroke="none"/>
      <path d="M 5436.29931640625 2606.4462890625 L 5383.646484375 2635.165283203125 L 5383.646484375 2692.543701171875 L 5436.29931640625 2721.26025390625 L 5488.95458984375 2692.543701171875 L 5488.95458984375 2635.165283203125 L 5436.29931640625 2606.4462890625 M 5436.29931640625 2605.7705078125 L 5489.5478515625 2634.81298828125 L 5489.5478515625 2692.89599609375 L 5436.29931640625 2721.93603515625 L 5383.05322265625 2692.89599609375 L 5383.05322265625 2634.81298828125 L 5436.29931640625 2605.7705078125 Z" stroke="none" fill="#fff"/>
    </g>
    <g id="패스_30" data-name="패스 30" transform="translate(-5361.709 1086.911)" fill="none" stroke-miterlimit="10" opacity="0.5">
      <path d="M5524.415,2605.771l-53.247,29.042V2692.9l53.247,29.04,53.248-29.04v-58.083Z" stroke="none"/>
      <path d="M 5524.41455078125 2606.4462890625 L 5471.7607421875 2635.165283203125 L 5471.7607421875 2692.543701171875 L 5524.41455078125 2721.26025390625 L 5577.06884765625 2692.543701171875 L 5577.06884765625 2635.165283203125 L 5524.41455078125 2606.4462890625 M 5524.41455078125 2605.7705078125 L 5577.662109375 2634.81298828125 L 5577.662109375 2692.89599609375 L 5524.41455078125 2721.93603515625 L 5471.16748046875 2692.89599609375 L 5471.16748046875 2634.81298828125 L 5524.41455078125 2605.7705078125 Z" stroke="none" fill="#fff"/>
    </g>
    <g id="패스_31" data-name="패스 31" transform="translate(-5396.825 1189.568)" fill="none" stroke-miterlimit="10" opacity="0.5">
      <path d="M5612.529,2605.771l-53.246,29.042V2692.9l53.246,29.04,53.249-29.04v-58.083Z" stroke="none"/>
      <path d="M 5612.529296875 2606.4462890625 L 5559.87646484375 2635.165283203125 L 5559.87646484375 2692.543701171875 L 5612.529296875 2721.26025390625 L 5665.18505859375 2692.543701171875 L 5665.18505859375 2635.165283203125 L 5612.529296875 2606.4462890625 M 5612.529296875 2605.7705078125 L 5665.7783203125 2634.81298828125 L 5665.7783203125 2692.89599609375 L 5612.529296875 2721.93603515625 L 5559.283203125 2692.89599609375 L 5559.283203125 2634.81298828125 L 5612.529296875 2605.7705078125 Z" stroke="none" fill="#fff"/>
    </g>
    <g id="패스_32" data-name="패스 32" transform="translate(-5431.692 1291.058)" fill="none" stroke-miterlimit="10" opacity="0.5">
      <path d="M5700.644,2605.771l-53.247,29.042V2692.9l53.247,29.04,53.249-29.04v-58.083Z" stroke="none"/>
      <path d="M 5700.64404296875 2606.4462890625 L 5647.99072265625 2635.165283203125 L 5647.99072265625 2692.543701171875 L 5700.64404296875 2721.26025390625 L 5753.29931640625 2692.543701171875 L 5753.29931640625 2635.165283203125 L 5700.64404296875 2606.4462890625 M 5700.64404296875 2605.7705078125 L 5753.892578125 2634.81298828125 L 5753.892578125 2692.89599609375 L 5700.64404296875 2721.93603515625 L 5647.3974609375 2692.89599609375 L 5647.3974609375 2634.81298828125 L 5700.64404296875 2605.7705078125 Z" stroke="none" fill="#fff"/>
    </g>
  </g>
</svg>
